<svg xmlns="http://www.w3.org/2000/svg" width="123" height="123" viewBox="0 0 123 123" fill="none">
<g clip-path="url(#clip0_4_342)">
<path d="M89.0117 102.507C88.6016 102.507 88.1862 102.494 87.7686 102.466C81.5652 102.059 75.3062 98.8982 75.3062 98.8982L6.96935 59.0493C3.32327 56.9443 0.806003 55.3939 1.28009 52.652C1.41172 51.8933 2.87985 50.1836 5.08981 48.0822C5.35047 48.4727 5.59014 48.808 5.77386 49.0518C6.20882 49.6224 7.52482 50.656 8.52332 51.4018C8.88044 51.6695 9.19398 51.8982 9.41636 52.0565L18.0294 47.661L26.1826 54.7392C26.6451 56.2296 26.9017 57.7275 26.9017 59.1458L27.0201 62.1363L28.1524 62.7923L62.6326 82.6958L63.7654 83.3518L69.9088 79.7591L80.7229 87.175C80.9888 88.2886 81.1325 89.3942 81.1325 90.455V95.0603C81.4558 95.2484 81.8539 95.4232 82.2648 95.5808C82.5623 95.6946 82.8688 95.7995 83.157 95.8956C83.2491 95.9218 83.3367 95.9525 83.4243 95.9788C83.6164 96.0401 83.8001 96.0922 83.966 96.1407C84.0274 96.1581 84.0843 96.1758 84.1368 96.1887C84.5175 96.2936 84.771 96.3546 84.771 96.3546C84.771 96.3546 86.4197 96.6827 88.1209 96.6827C88.2698 96.6827 88.4184 96.6788 88.5669 96.6744C88.7377 96.6694 88.9041 96.661 89.0655 96.6432C89.1838 96.6348 89.2977 96.622 89.4115 96.6046L89.5289 96.5907C89.6517 96.569 89.774 96.5516 89.8923 96.5253L89.923 96.5165L90.0101 96.4991L90.0889 96.4817C91.0117 96.2847 94.9785 95.3624 98.2937 93.8009C100.534 92.7392 114.097 85.1999 119.774 80.5761C123.693 85.0624 119.089 88.3904 117.364 90.0032C115.563 91.6856 106.895 96.6744 103.128 98.3942C99.6159 99.9984 94.6921 102.507 89.0117 102.507ZM91.9729 90.6991C91.9875 90.5657 92.0013 90.4332 92.0133 90.302C92.0356 90.0716 92.0542 89.8447 92.0689 89.6242C92.3473 89.8492 92.6849 90.1036 93.0732 90.3505C92.712 90.4621 92.3402 90.5804 91.9729 90.6991Z" fill="black" fill-opacity="0.12"/>
<path d="M9.41634 52.0565L18.0294 47.661L31.0317 58.9488L63.7654 83.3518L69.9087 79.7591L87.0921 91.5433L88.1693 45.1593L7.28644 29.6361L9.41634 52.0565Z" fill="#262424"/>
<path d="M73.928 72.2927L67.146 76.2074L77.8876 94.4518L84.6879 90.5238L82.4365 78.4413L73.928 72.2927Z" fill="#2E2D2D"/>
<path d="M19.7097 40.98L12.9272 44.8942L23.5745 63.1989L30.3748 59.2708L27.6164 46.9988L19.7097 40.98Z" fill="#2E2D2D"/>
<path d="M97.3628 40.843C97.3628 41.1427 97.3854 41.4251 97.449 41.6213L97.4549 41.6502C97.4837 41.7311 97.518 41.7943 97.5647 41.8405C97.5989 41.8753 97.6447 41.9157 97.7026 41.9562C97.9276 42.1288 98.3141 42.3476 98.7695 42.4285C98.9372 42.4574 99.1097 42.469 99.2885 42.4521H99.2939L99.3922 42.4401H99.3979C99.5883 42.4174 99.7844 42.3596 99.9748 42.2613C100.015 42.2382 100.062 42.2155 100.107 42.1866H100.113C100.159 42.1634 100.205 42.1345 100.251 42.1056L100.257 42.0998C101.122 41.5692 102.131 40.5601 102.564 39.6724C102.628 39.5394 102.679 39.4069 102.714 39.2743C102.76 39.1133 102.795 38.9457 102.812 38.7726C102.818 38.7322 102.823 38.6859 102.823 38.6517C102.841 38.5076 102.847 38.375 102.847 38.2483C102.847 38.1442 102.847 38.0459 102.835 37.9534C102.835 37.8965 102.829 37.8387 102.818 37.7808C102.8 37.5905 102.766 37.4059 102.714 37.2329L102.708 37.2156C102.61 36.8353 102.443 36.5182 102.223 36.3336C102.039 36.1775 101.826 36.1144 101.549 36.1491C100.978 36.218 100.148 36.7197 98.7464 37.6715C98.1638 38.0691 97.6163 38.7553 97.4432 39.3784L97.4259 39.43C97.4028 39.5283 97.3912 39.6261 97.3854 39.724C97.3854 39.857 97.3743 40.0122 97.3681 40.1683V40.1741C97.3627 40.3933 97.357 40.6237 97.3628 40.843Z" fill="#e1e1e1"/>
<path d="M98.5045 40.3066V40.497L98.5103 40.5028V40.5432C98.5156 40.964 98.585 41.3562 98.7176 41.6618V41.6676L98.7233 41.6733C98.8327 41.9384 98.9946 42.1345 99.2139 42.2328C99.4443 42.3365 99.7382 42.3365 100.102 42.1804V42.175C100.148 42.1577 100.2 42.1345 100.252 42.1056L100.257 42.0999C101.261 41.5808 102.149 40.6295 102.564 39.6724C102.628 39.5394 102.679 39.4069 102.714 39.2743C102.766 39.1187 102.795 38.963 102.812 38.8074V38.7727C102.818 38.7322 102.823 38.6859 102.823 38.6517C102.841 38.5076 102.847 38.3751 102.847 38.2483C102.847 38.1442 102.847 38.0459 102.835 37.9534C102.835 37.9019 102.835 37.844 102.823 37.7982V37.7924C102.806 37.5674 102.766 37.3828 102.714 37.2329L102.708 37.2156C102.622 36.9737 102.5 36.8353 102.373 36.8122C102.304 36.8007 102.212 36.8064 102.097 36.8233C101.612 36.9043 100.793 37.2561 100.228 37.7346C99.5363 38.323 98.5276 38.9977 98.5045 40.3066Z" fill="#eeeeee"/>
<path d="M36.6244 26.6301C37.9195 28.7604 39.2489 31.2577 41.9001 32.7881L42.6539 33.2235V29.8594C42.6539 24.3178 46.5699 22.0896 51.3995 24.8777C56.2246 27.6636 60.1411 34.4141 60.1411 39.9557V43.3193L96.8838 64.5326V61.169C96.8838 55.6278 100.796 53.3969 105.625 56.1851C110.454 58.9728 114.37 65.7237 114.37 71.2649V77.019C115.624 77.7431 115.343 78.7056 115.343 78.7056C115.343 78.7056 119.362 79.5042 121.316 78.6076C121.691 78.4373 123.085 71.9101 122.558 69.7287C122.032 67.5472 121.93 65.3292 118.317 60.8701C115.344 57.2062 103.436 47.3065 103.436 47.3065C103.436 47.3065 89.3555 29.7651 82.4583 24.8488C74.5124 19.1791 46.7119 2.24214 44.8181 1.90056C41.076 1.21786 37.3472 6.72875 36.5248 8.57493C36.491 8.64653 35.6958 14.515 35.5895 14.8406C35.211 15.9996 34.3891 17.4068 34.1356 18.2865C33.8852 19.1636 35.3329 24.4984 36.6244 26.6301Z" fill="#2A2A2F"/>
<path d="M122.558 69.7288C121.999 66.4927 120.887 64.7137 120.887 64.7137C120.887 64.7137 118.016 61.0374 116.545 58.9541C115.075 56.8718 101.301 44.6976 101.301 44.6976L102.392 59.6778L122.558 69.7288Z" fill="#e1e1e1"/>
<path d="M34.1356 18.2865C34.3891 17.4068 35.211 15.9996 35.5895 14.8406C35.6829 14.5541 36.31 9.97457 36.4826 8.83248C39.6007 10.6243 47.282 13.9484 51.1193 16.3803C56.2322 19.6234 70.9388 29.927 73.8555 31.9364C76.7761 33.9484 95.1488 47.7068 102.5 51.517C109.856 55.3334 115.507 63.2593 116.643 64.7105C117.78 66.1662 119.582 67.966 122.558 69.7287C123.085 71.9101 121.691 78.4373 121.316 78.6076C119.362 79.5042 115.343 78.7056 115.343 78.7056C115.343 78.7056 115.624 77.7431 114.37 77.019V71.2649C114.37 65.7237 110.454 58.9728 105.625 56.1851C100.796 53.3969 96.8838 55.6278 96.8838 61.169V64.5326L60.1411 43.3193V39.9557C60.1411 34.4141 56.2246 27.6636 51.3995 24.8777C46.57 22.0896 42.6539 24.3178 42.6539 29.8594V33.2235L41.9001 32.7881C39.2489 31.2577 37.9195 28.7604 36.6244 26.6301C35.3329 24.4984 34.0711 19.1444 34.1356 18.2865Z" fill="#e3e3e3"/>
<path d="M98.1144 61.881C98.1144 66.6417 101.478 72.4426 105.627 74.838C109.775 77.2334 113.139 75.3156 113.139 70.5551C113.139 65.7944 109.775 59.9935 105.627 57.5981C101.478 55.2031 98.1144 57.1204 98.1144 61.881Z" fill="#1F1E20"/>
<path d="M43.8855 30.5723C43.8855 35.3329 47.2491 41.1339 51.3978 43.5293C55.5464 45.9243 58.9101 44.007 58.9101 39.2463C58.9101 34.4857 55.5464 28.6844 51.3978 26.2894C47.2491 23.894 43.8855 25.8117 43.8855 30.5723Z" fill="#1F1E20"/>
<path d="M35.5886 14.8415C35.9676 13.6838 35.7043 10.4171 36.5248 8.57275C37.345 6.72876 41.0782 1.21964 44.8181 1.89834C45.4945 2.02065 49.472 4.25863 54.6676 7.34209C54.6542 7.335 46.0799 2.79627 45.1339 2.98664C44.187 3.17744 38.8464 6.73991 38.0241 9.72865C37.2009 12.7165 37.771 13.6007 37.3926 15.1034C37.0136 16.6058 34.797 16.7094 34.797 16.7094C35.0861 16.0903 35.3951 15.4335 35.5886 14.8415Z" fill="#2A2A2F"/>
<path d="M95.7515 60.5152V63.8789L96.8838 64.5327V61.169C96.8838 55.6279 100.796 53.397 105.625 56.1851C110.454 58.9728 114.37 65.7237 114.37 71.2649V77.019L115.503 77.6728V71.9192C115.503 65.6601 111.079 58.0344 105.625 54.8856C100.171 51.7367 95.7515 54.2567 95.7515 60.5152Z" fill="#e1e1e1"/>
<path d="M41.5216 29.2056V32.5564C41.6426 32.6351 41.7715 32.7138 41.9001 32.7881L42.6539 33.2235V29.8594C42.6539 24.3178 46.57 22.0896 51.3995 24.8777C56.2246 27.6636 60.1411 34.4141 60.1411 39.9557V43.3193L61.2734 43.9736V40.6095C61.2734 34.3509 56.8535 26.727 51.3995 23.5782C45.9451 20.4293 41.5216 22.9471 41.5216 29.2056Z" fill="#e1e1e1"/>
<path d="M36.2358 10.5479C36.2963 10.1222 36.3523 9.72908 36.3981 9.40843L36.3985 9.40619C36.4328 9.17134 36.4608 8.97478 36.4826 8.83249C36.998 9.12864 37.619 9.48669 38.302 9.88121C38.7175 10.1325 39.188 10.4109 39.7164 10.716C40.5868 11.2186 41.5728 11.7896 42.4689 12.3095C43.3807 12.8446 45.2824 12.8307 46.1955 13.3752C46.1128 13.4935 45.6672 14.1237 45.4684 14.1753C44.9475 14.3091 40.1433 12.8583 39.2547 12.3473C38.5689 11.9537 36.9438 10.9753 36.2358 10.5479Z" fill="#EF2B63"/>
<path d="M38.5342 29.6361C37.8102 28.6417 37.2128 27.5983 36.6244 26.6301C35.3329 24.4984 34.0711 19.1444 34.1356 18.2865V18.2856L34.1365 18.2861C35.751 20.4405 37.2084 21.8201 37.7986 23.5399C38.3225 25.0663 38.5258 27.411 38.5342 29.6361Z" fill="#2A2A2F"/>
<path d="M101.301 46.1039C101.301 46.1039 92.3389 42.932 91.2656 42.3124C90.1925 41.6929 61.2729 22.0629 61.2729 22.0629L51.3977 12.0071C51.3977 12.0071 52.1013 7.31186 53.4271 7.81446C54.5705 8.24807 77.1065 22.0336 83.4683 26.6986C89.592 32.4167 101.301 46.1039 101.301 46.1039Z" fill="#1F1E20"/>
<path d="M71.03 18.5098L74.6778 31.111L72.0605 29.3382L69.842 17.7631L71.03 18.5098Z" fill="#2A2A2F"/>
<path d="M83.9522 27.1616L94.6445 43.6841L91.96 42.7136L82.9213 26.3032L83.9522 27.1616Z" fill="#2A2A2F"/>
<path d="M42.666 2.12916C42.666 2.12916 38.1259 3.84013 37.1181 4.28087C31.2358 6.85111 19.8644 13.0723 14.8814 17.1195C13.8487 17.9592 7.92108 23.5551 7.92108 23.5551L52.6039 42.0847C52.6039 42.0847 55.4867 41.7845 56.3945 41.471C65.4412 38.343 78.5097 31.2399 81.563 26.9405C81.8921 26.4766 82.4582 24.8488 82.4582 24.8488C82.4582 24.8488 54.9971 8.09593 46.3569 3.07783C45.4243 2.53702 43.205 2.13762 42.666 2.12916Z" fill="#2A2A2F"/>
<path d="M103.436 47.3066L70.1982 66.4975C70.1982 66.4975 90.3117 88.6823 91.203 88.9068C91.4876 88.9783 95.1901 93.2858 99.5491 90.627C105.454 87.0245 113.307 82.0812 118.249 78.9551C121.085 77.1604 122.558 69.7288 122.558 69.7288L116.787 60.1154L103.436 47.3066Z" fill="#e1e1e1"/>
<path d="M121.316 78.6076C121.316 78.6076 120.938 79.58 120.456 80.002C115.27 84.5473 100.63 92.6956 98.2915 93.7995C94.5195 95.5808 89.8928 96.5262 89.8928 96.5262C89.8928 96.5262 86.8072 85.8793 88.9322 86.5928C95.4379 88.7761 119.503 72.9167 121.744 70.7297C122.112 70.3705 122.558 69.7288 122.558 69.7288L121.316 78.6076Z" fill="#e3e3e3"/>
<path d="M73.3497 66.0337C78.7201 68.953 85.0147 76.2786 88.7826 78.0824C92.5514 79.8868 92.1952 85.9274 99.6763 82.179C112.268 75.8694 116.984 71.694 116.984 71.694C116.984 71.694 117.335 66.0337 116.286 62.8742C115.239 59.7142 102.064 48.7804 102.064 48.7804C102.064 48.7804 93.1608 60.3035 73.3497 66.0337Z" fill="#eeeeee"/>
<path d="M101.456 44.8777C102.129 45.6894 102.866 46.9948 102.61 49.0811C102.529 50.7516 102.044 52.7894 99.9863 54.302C95.6972 57.454 90.1026 61.2224 84.4058 63.8144C81.8516 64.9765 78.1664 65.311 75.8444 66.011C75.0256 66.2578 70.1983 66.4975 70.1983 66.4975L52.6039 42.0847L82.4582 24.8488C82.4582 24.8488 94.3945 36.3679 101.456 44.8777Z" fill="#2A2A2F"/>
<path d="M59.2405 44.7719C55.9529 40.8977 41.1934 30.9273 24.0362 21.4919C23.3451 21.1121 23.1726 20.1985 23.6782 19.5928C24.1924 18.9768 24.7923 18.2923 25.145 18.0024C29.4502 14.4644 39.3006 8.98903 44.4494 6.85686C44.7776 6.72123 45.3287 6.55579 45.9327 6.39215C47.7784 5.89087 49.7504 6.10302 51.4476 6.98498C68.4953 15.8382 81.048 25.5769 82.7839 26.9405C84.6065 28.3713 85.6267 29.5379 85.6267 29.5379L81.3989 43.54L59.2405 44.7719Z" fill="#37364D"/>
<path d="M92.0133 90.302C91.9697 90.7786 91.9039 91.273 91.8341 91.763L91.8252 91.8238C91.5236 93.8226 91.0602 95.7425 90.8151 96.1713C90.7889 96.2194 90.7667 96.25 90.7453 96.2585C90.5746 96.3372 90.3864 96.4027 90.1854 96.4595L90.0889 96.4817L90.0101 96.4991L89.923 96.5165L89.8923 96.5253C89.774 96.5516 89.6517 96.569 89.5289 96.5907L89.4115 96.6046C89.2976 96.622 89.1838 96.6348 89.0655 96.6432C88.904 96.661 88.7377 96.6694 88.5669 96.6744C88.4184 96.6788 88.2698 96.6827 88.1208 96.6827C86.4197 96.6827 84.771 96.3546 84.771 96.3546C84.771 96.3546 84.5175 96.2936 84.1368 96.1887C84.0843 96.1758 84.0274 96.1581 83.966 96.1407C83.8001 96.0922 83.6164 96.0401 83.4242 95.9788C83.3367 95.9525 83.2491 95.9218 83.157 95.8956C82.8688 95.7995 82.5623 95.6946 82.2648 95.5808C81.8539 95.4232 81.4558 95.2484 81.1324 95.0603V90.455C81.1324 84.9138 77.2182 78.1616 72.3851 75.3752C67.5573 72.5852 63.6475 74.8152 63.6475 80.3569L63.7654 83.3518L62.6326 82.6958L27.0201 62.1363L26.9017 59.1458C26.9017 53.6047 22.9875 46.8515 18.1593 44.0661C13.331 41.2802 9.41635 43.5061 9.41635 49.0473V52.0565C8.57709 51.453 6.36401 49.8261 5.77384 49.0518C5.04755 48.0893 3.44288 45.6841 3.14981 44.1537C2.86071 42.6229 2.31456 38.7611 2.45865 37.2827C2.60274 35.8044 3.58697 34.8597 3.95436 33.5829C4.28659 32.415 5.20056 28.8511 5.77384 26.8435C5.82586 26.6599 5.87437 26.4891 5.92236 26.3321C6.13628 25.6187 6.91951 24.6042 7.92109 23.5551C9.51288 21.8841 11.6646 20.1389 12.9196 19.4433L12.9459 19.426C12.9899 19.4002 13.0161 19.3691 13.0291 19.3344C13.2701 19.2552 13.5058 19.1943 13.7331 19.1551C13.847 19.1329 13.9608 19.12 14.0742 19.1111C14.2975 19.0853 14.5119 19.0853 14.7173 19.1111C14.7787 19.1155 14.8307 19.12 14.8877 19.1284L14.962 19.1378C14.9931 19.1418 15.0282 19.1507 15.0714 19.1636L15.1327 19.1854C15.1768 19.2027 15.2248 19.2205 15.2817 19.2423L15.3689 19.2774L15.3951 19.2908L15.5001 19.3388C15.5699 19.3691 15.6442 19.4042 15.7278 19.4393L15.7322 19.4433C15.8546 19.5047 15.9902 19.5701 16.1388 19.6453C16.2393 19.6928 16.3442 19.7498 16.4537 19.8067C16.6155 19.8943 16.7948 19.9859 16.9829 20.0869C17.0745 20.1345 17.1711 20.187 17.2671 20.2394C17.3676 20.2924 17.4681 20.3493 17.5731 20.4058C17.7087 20.4801 17.8528 20.5588 18.0018 20.6419C18.1855 20.7424 18.3781 20.8518 18.5747 20.9608C18.7717 21.0707 18.9767 21.1885 19.1871 21.3069C19.4406 21.4465 19.703 21.595 19.9743 21.7529C20.3327 21.9584 20.709 22.1772 21.0982 22.4C21.1943 22.4525 21.2908 22.5094 21.3913 22.5708C21.6884 22.7412 21.9904 22.9208 22.3008 23.0996C22.4062 23.1566 22.5063 23.2179 22.6112 23.2833C22.7776 23.3798 22.9439 23.4799 23.1142 23.5808L23.1276 23.5853C23.4594 23.7819 23.8054 23.9829 24.155 24.1933L24.1856 24.2106C24.352 24.3116 24.5183 24.4117 24.6886 24.5126L24.7327 24.5344L24.7629 24.5517C34.1312 30.1062 47.4875 38.4333 52.6043 42.0852C53.5534 42.7625 54.5812 43.7205 55.6393 44.8662C55.7185 44.9538 55.8012 45.0414 55.88 45.1286C56.1557 45.4306 56.431 45.7455 56.7067 46.0688L56.7899 46.1653C56.9296 46.3312 57.0697 46.4975 57.2137 46.6728C57.3232 46.804 57.4326 46.9396 57.5464 47.0748C57.6603 47.2149 57.7782 47.359 57.892 47.508C58.0143 47.661 58.1366 47.814 58.2638 47.9714C58.4212 48.1774 58.5827 48.3868 58.745 48.5968C58.9149 48.82 59.0857 49.0473 59.2565 49.2746C59.4139 49.4805 59.5669 49.6904 59.7284 49.9048C60.0962 50.4118 60.468 50.9277 60.8394 51.453C61.0804 51.7981 61.321 52.1437 61.5612 52.4892C61.9197 53.0096 62.2741 53.5348 62.6237 54.0548C63.1396 54.8246 63.6426 55.5941 64.1238 56.351C64.2857 56.6001 64.4432 56.8496 64.6006 57.0986C64.8239 57.4487 65.0427 57.7942 65.2566 58.1353L65.2695 58.1531C65.3705 58.3195 65.471 58.4853 65.576 58.6473C65.777 58.9706 65.974 59.2899 66.1666 59.6048C66.2582 59.7627 66.3543 59.9152 66.4508 60.0682C66.936 60.8688 67.3866 61.6209 67.7975 62.312C67.9945 62.6443 68.1778 62.9636 68.3574 63.2655L68.4188 63.375C68.4886 63.4928 68.554 63.6111 68.6203 63.7245L68.6376 63.7508C68.7293 63.9082 68.8169 64.0572 68.8996 64.2013C69.2363 64.783 69.5165 65.2727 69.7264 65.649C69.8006 65.7846 69.8705 65.9069 69.9274 66.0119C70.1067 66.3267 70.1987 66.4971 70.1987 66.4971C70.1987 66.4971 81.7792 75.0213 84.5348 77.317C88.4842 80.6192 90.9201 84.3409 91.7598 86.6456C91.8559 86.9125 91.9346 87.1571 91.9875 87.3803C92.149 88.0497 92.1272 89.1256 92.0133 90.302Z" fill="#dfdfdf"/>
<path d="M92.0396 90.2931C91.9831 90.7786 91.9128 91.273 91.8341 91.763L91.8252 91.8238C91.4974 93.8577 91.0469 95.747 90.8151 96.1713C90.7889 96.2194 90.7671 96.25 90.7453 96.2585C90.5483 96.3501 90.325 96.425 90.0889 96.4817L90.0101 96.4991L89.923 96.5165L89.8923 96.5253C89.774 96.5516 89.6516 96.569 89.5289 96.5907L89.4115 96.6046C89.2976 96.622 89.1838 96.6348 89.0655 96.6432C88.904 96.6605 88.7377 96.6694 88.5669 96.6744C88.4184 96.6788 88.2698 96.6827 88.1208 96.6827C86.4197 96.6827 84.7709 96.3546 84.7709 96.3546C84.7709 96.3546 84.5175 96.2936 84.1368 96.1887C84.0843 96.1758 84.0274 96.1581 83.9664 96.1407C83.8001 96.0922 83.6164 96.0401 83.4242 95.9788C83.3367 95.9525 83.2491 95.9218 83.157 95.8956C82.8688 95.7995 82.5623 95.6946 82.2648 95.5808C81.8538 95.4232 81.4558 95.2484 81.132 95.0603V90.455C81.132 84.9138 77.2182 78.1616 72.3851 75.3752C67.5573 72.5852 63.6475 74.8152 63.6475 80.3569L63.7654 83.3518L62.6326 82.6958L27.0201 62.1363L26.9017 59.1458C26.9017 53.6047 22.9875 46.8515 18.1593 44.0661C13.331 41.2802 9.41635 43.5061 9.41635 49.0473V52.0561C8.57709 51.453 6.36401 49.8261 5.77384 49.0518C5.04755 48.0897 3.44288 45.6841 3.14981 44.1537C2.86071 42.6229 2.31456 38.7611 2.45865 37.2827C2.60274 35.8044 3.58697 34.8597 3.95436 33.5829C4.28659 32.415 5.20056 28.8511 5.77384 26.8435C5.82586 26.6599 5.87437 26.4891 5.92236 26.3321C5.99665 26.393 6.07091 26.4588 6.1452 26.5198C12.321 31.7154 14.0876 33.1675 17.8795 35.5683C22.9964 38.8136 37.6994 49.1171 40.617 51.1247C43.5381 53.1364 55.0621 61.7694 62.5143 65.3821C74.4541 71.168 83.6164 82.6967 84.7536 84.1487C85.8468 85.5525 88.6723 86.7725 91.7598 86.6456C91.8736 86.6413 91.9915 86.6368 92.1049 86.6282C92.2886 87.3977 92.2232 88.7929 92.0396 90.2931Z" fill="#e3e3e3"/>
<path d="M122.483 73.5522C122.264 76.2807 121.591 78.4849 121.315 78.6076C121.315 78.6076 120.939 79.5781 120.454 80.0025C115.271 84.5465 100.629 92.6939 98.2937 93.8009C94.9785 95.3624 91.0117 96.2847 90.0889 96.4817L90.0101 96.4991L89.923 96.5165L89.8923 96.5253C89.774 96.5516 89.6517 96.569 89.5289 96.5907L89.4115 96.6046C89.2976 96.622 89.1838 96.6348 89.0655 96.6432C88.904 96.661 88.7377 96.6694 88.5669 96.6744C88.4184 96.6788 88.2698 96.6827 88.1208 96.6827C86.4197 96.6827 84.771 96.3546 84.771 96.3546C84.771 96.3546 84.5175 96.2936 84.1368 96.1887C84.0843 96.1758 84.0274 96.1581 83.966 96.1407C83.8001 96.0922 83.6164 96.0401 83.4242 95.9788C83.3367 95.9525 83.2491 95.9218 83.157 95.8956C82.8688 95.7995 82.5623 95.6946 82.2648 95.5808C81.8539 95.4232 81.4558 95.2484 81.1324 95.0603V90.455C81.1324 84.9138 77.2182 78.1616 72.3851 75.3752C67.5573 72.5852 63.6475 74.8152 63.6475 80.3569L63.7654 83.3518L62.6326 82.6958L28.1524 62.7923L27.0201 62.1363L26.9017 59.1458C26.9017 53.6047 22.9875 46.8516 18.1593 44.0661C13.331 41.2802 9.41635 43.5062 9.41635 49.0473V52.0565C9.14548 51.8639 8.73899 51.5664 8.28399 51.2213C7.32604 50.495 6.17587 49.5766 5.77384 49.0518C5.04755 48.0893 3.44288 45.6841 3.14981 44.1537C2.86071 42.6229 2.31456 38.7611 2.45865 37.2827C2.69038 38.4462 5.4545 40.9084 6.28529 41.2361C7.0534 41.4123 7.81613 40.8897 8.86042 40.3671C10.6163 39.4883 13.1678 38.6094 17.8795 41.0525C25.3927 44.9538 28.345 50.5301 28.9445 54.685C29.5475 58.8394 29.7926 61.6556 31.4066 62.8764C33.0157 64.0919 57.8573 77.72 61.5176 79.4514C61.8627 77.921 62.191 76.915 62.8118 75.5856C65.2695 70.9932 69.1882 71.5575 72.2063 73.2372C82.8029 79.3597 82.851 88.5047 83.0391 89.4889C83.2184 90.398 85.93 91.6576 88.7991 91.7146C89.0397 91.7146 94.572 89.7332 95.6394 89.6984C96.9291 89.6588 109.166 83.4097 115.652 78.7603C117.545 77.405 118.923 76.2456 119.684 75.5678C121.836 73.6523 122.356 73.6304 122.483 73.5522Z" fill="#d5d5d5"/>
<path d="M82.1856 89.6183C81.1076 76.9528 74.3833 72.4435 70.1982 71.1215C66.4716 69.944 61.9183 72.3973 62.5143 78.8482C64.6304 73.2534 67.6498 72.9073 70.5154 73.7093C73.3813 74.511 79.6225 79.7534 82.1856 89.6183Z" fill="#e1e1e1"/>
<path d="M28.0354 59.6537C28.0354 49.0504 22.9083 43.3532 18.3732 40.4373C13.8381 37.522 8.711 41.0178 8.711 45.3358C11.4604 42.5851 14.8543 41.2811 17.5673 42.8626C20.2803 44.4437 26.0318 48.8819 28.0354 59.6537Z" fill="#e1e1e1"/>
<path d="M29.9336 60.1826C30.4575 61.491 31.4018 62.5864 32.6151 63.3043C38.5898 66.84 57.7933 78.1762 58.3368 78.1625C61.3993 78.0838 43.3135 66.5767 39.5234 64.5478C37.0355 63.2166 29.0579 57.9935 29.9336 60.1826Z" fill="#e1e1e1"/>
<path d="M70.1987 66.4971L68.0648 65.2945L18.1593 31.195C18.1593 31.195 13.2874 27.9238 8.94447 24.3988C8.59886 24.1141 8.25774 23.8343 7.92108 23.5551C9.51287 21.8841 11.6646 20.1389 12.9196 19.4433L12.9459 19.426C13.6722 19.1725 14.3455 19.0502 14.8877 19.1284L14.962 19.1378C14.9931 19.1418 15.0282 19.1507 15.0713 19.1636C15.1456 19.1898 15.2466 19.2294 15.3689 19.2774L15.3951 19.2908C15.658 19.4086 16.016 19.579 16.4536 19.8067C16.7814 19.9775 17.1577 20.1785 17.5731 20.4058C17.7087 20.48 17.8528 20.5588 18.0018 20.6419C18.3692 20.8478 18.7672 21.0707 19.1871 21.3068C19.4406 21.4465 19.703 21.595 19.9743 21.7529C20.3327 21.9584 20.709 22.1772 21.0982 22.4C21.1943 22.4525 21.2908 22.5094 21.3913 22.5708C21.6884 22.7411 21.9903 22.9208 22.3008 23.0996C22.4062 23.1566 22.5063 23.2179 22.6112 23.2833C23.2761 23.6725 23.9717 24.0839 24.6886 24.5126L24.7327 24.5344L24.7629 24.5517C34.1312 30.1062 47.4875 38.4333 52.6043 42.0852C53.5534 42.7625 54.5812 43.7205 55.6393 44.8662C55.7185 44.9538 55.8012 45.0414 55.88 45.1286C56.1557 45.4306 56.431 45.7455 56.7067 46.0688L56.7899 46.1653C56.9296 46.3312 57.0696 46.4975 57.2137 46.6728C57.3232 46.804 57.4326 46.9396 57.5464 47.0748C57.6603 47.2149 57.7782 47.359 57.892 47.508C58.0143 47.661 58.1366 47.814 58.2638 47.9714C58.4212 48.1773 58.5827 48.3868 58.745 48.5968C58.9149 48.82 59.0857 49.0473 59.2565 49.2746C59.4139 49.4805 59.5669 49.6904 59.7284 49.9048C60.0962 50.4118 60.468 50.9277 60.8393 51.453C61.0804 51.7981 61.321 52.1437 61.5612 52.4892C61.9197 53.0096 62.2741 53.5348 62.6237 54.0547C63.306 55.0826 63.9713 56.1059 64.6006 57.0986C64.8239 57.4487 65.0427 57.7942 65.2566 58.1353L65.2695 58.1531C65.3705 58.3195 65.471 58.4853 65.576 58.6473C65.777 58.9706 65.974 59.2899 66.1666 59.6048C66.2582 59.7627 66.3543 59.9152 66.4508 60.0682C66.936 60.8688 67.3865 61.6209 67.7975 62.312C67.9945 62.6487 68.1826 62.9636 68.3574 63.2655L68.4188 63.375C68.4886 63.4928 68.554 63.6111 68.6203 63.7245L68.6376 63.7508C68.7293 63.9082 68.8169 64.0572 68.8996 64.2013C69.2363 64.783 69.5165 65.2727 69.7264 65.649C69.8051 65.7846 69.8705 65.9069 69.9274 66.0119C70.1067 66.3267 70.1987 66.4971 70.1987 66.4971Z" fill="#eeeeee"/>
<path d="M64.8763 81.0711C64.8763 85.8317 68.2395 91.6328 72.3882 94.0281C76.5368 96.4231 79.9005 94.5057 79.9005 89.7452C79.9005 84.9846 76.5368 79.1837 72.3882 76.7881C68.2395 74.3928 64.8763 76.3105 64.8763 81.0711Z" fill="#1F1E20"/>
<path d="M10.6479 49.762C10.6479 54.5226 14.0111 60.3235 18.1597 62.7189C22.3088 65.1144 25.6716 63.1966 25.6716 58.436C25.6716 53.6754 22.3088 47.8745 18.1597 45.479C14.0111 43.0841 10.6479 45.0014 10.6479 49.762Z" fill="#1F1E20"/>
<path d="M60.3213 80.1879C59.2032 80.1896 37.9672 67.7291 28.8235 62.3329L28.7159 62.2693L28.7244 62.1448C28.7315 62.0371 29.3479 51.296 21.1872 42.7906C19.7119 41.2188 17.8511 36.8674 17.679 35.5985C17.3583 33.2364 22.2661 27.1131 22.4752 26.8538L22.7914 27.1086C22.7407 27.1704 17.7835 33.3538 18.081 35.5438C18.2295 36.6383 19.9761 40.907 21.4816 42.5117C29.2856 50.6458 29.1798 60.7994 29.1344 62.0452C40.8447 68.9553 58.3537 79.1281 60.1638 79.7605C60.5432 78.5651 62.513 70.6183 62.2591 66.51C62.2132 65.7753 60.3239 60.7376 59.5995 58.8586L59.9784 58.7126C60.0855 58.9911 62.605 65.5378 62.6638 66.4851C62.9337 70.8446 60.7834 79.4252 60.4836 80.0673L60.4458 80.1491L60.3475 80.1853L60.3213 80.1879Z" fill="#cfcfd0"/>
<path d="M38.5942 67.761L38.1961 67.6797C38.2006 67.6597 38.5964 65.6841 38.2962 63.9749C37.8168 61.2437 38.4079 51.0749 38.6729 50.0645C38.9558 48.9832 40.2002 42.5562 40.2127 42.4916L40.6112 42.5686C40.5596 42.8337 39.3516 49.0736 39.0652 50.1667C38.8041 51.1647 38.2219 61.205 38.6956 63.9047C39.0096 65.6917 38.6111 67.6775 38.5942 67.761Z" fill="#cfcfd0"/>
<path d="M24.7327 24.5344L24.6887 24.5126C23.7222 24.0052 17.429 20.7118 16.5542 20.891C15.8021 21.04 12.7974 21.7965 8.94451 24.3988C8.05232 25.0023 7.1121 25.7024 6.14523 26.5198C6.05358 26.5945 5.96643 26.6727 5.8744 26.7515L5.77386 26.8435C5.82589 26.6599 5.8744 26.4891 5.92238 26.3321C6.1363 25.6187 6.91954 24.6043 7.92112 23.5551C9.5129 21.8842 11.6646 20.1389 12.9197 19.4433L12.9459 19.426C12.99 19.4002 13.0162 19.3691 13.0291 19.3344C13.2701 19.2552 13.5059 19.1943 13.7331 19.1552C13.847 19.1329 13.9608 19.12 14.0743 19.1111C14.1979 19.0969 14.3184 19.092 14.4367 19.0938C14.6155 19.0924 14.7916 19.1018 14.962 19.1329C14.9931 19.1378 15.0283 19.1458 15.0714 19.1636L15.1328 19.1854C15.1768 19.1987 15.2292 19.2165 15.2818 19.2423L15.3689 19.2775L15.3952 19.2908L15.5001 19.3388C15.5699 19.3691 15.6442 19.4042 15.7278 19.4393L15.7323 19.4433C15.8546 19.5003 15.9902 19.5701 16.1388 19.6453C16.2393 19.6928 16.3443 19.7498 16.4537 19.8067C16.6155 19.8895 16.7948 19.9815 16.9829 20.0869C17.0745 20.1345 17.1711 20.187 17.2671 20.2395C17.3676 20.2924 17.4681 20.3493 17.5731 20.4058C17.7088 20.4801 17.8529 20.5588 18.0018 20.6419C18.1855 20.7424 18.3781 20.8479 18.5747 20.9608C18.7717 21.0707 18.9767 21.1886 19.1871 21.3069C19.4406 21.4465 19.703 21.595 19.9743 21.7529C20.3328 21.9584 20.709 22.1728 21.0982 22.4001C21.1943 22.4525 21.2908 22.5094 21.3913 22.5708C21.6884 22.7412 21.9904 22.9209 22.3008 23.0997C22.4062 23.1566 22.5063 23.218 22.6112 23.2833C22.7776 23.3798 22.9439 23.4799 23.1142 23.5809L23.1276 23.5853C23.4594 23.7819 23.8054 23.9829 24.155 24.1933L24.1856 24.2106C24.3654 24.3156 24.549 24.425 24.7327 24.5344Z" fill="#2A2A2F"/>
<path d="M82.2648 91.1065V95.5807C81.8538 95.4232 81.4558 95.2484 81.132 95.0602V90.455C81.132 84.9138 77.2182 78.1616 72.3851 75.3752C67.5573 72.5852 63.6475 74.8152 63.6475 80.3569L63.7654 83.3518L62.6326 82.6958L62.5143 79.7049C62.5143 73.4468 66.932 70.9277 72.3851 74.0765C77.8391 77.2254 82.2648 84.8484 82.2648 91.1065Z" fill="#e3e3e3"/>
<path d="M28.0345 59.7974L28.1524 62.7924L27.0201 62.1364L26.9017 59.1459C26.9017 53.6047 22.9875 46.8516 18.1593 44.0661C13.331 41.2802 9.41635 43.5062 9.41635 49.0473V52.0561C9.14549 51.8639 8.739 51.5664 8.284 51.2213V48.3958C8.284 42.1376 12.7057 39.6186 18.1593 42.7674C23.6172 45.9163 28.0345 53.5389 28.0345 59.7974Z" fill="#e3e3e3"/>
<path d="M68.063 65.2941C68.063 65.2941 59.1004 62.1221 58.0272 61.5025C57.0003 60.9097 57.3392 61.161 29.009 40.6904L18.1597 31.1972C18.1597 31.1972 22.2466 24.5486 23.5724 25.0512C24.7158 25.4844 47.2518 39.2699 53.6135 43.9353C59.7373 49.6535 68.063 65.2941 68.063 65.2941Z" fill="#2A2A2F"/>
<path d="M66.6603 64.0981C63.2152 62.8631 58.9986 61.3055 58.3555 60.9342L58.3145 60.911C57.3725 60.3676 57.3156 60.3346 29.4182 40.1768L19.0114 31.0705C20.7958 28.245 22.7278 25.862 23.3896 25.6872C24.8995 26.4161 46.6932 39.6831 53.1941 44.441C58.0579 49.0024 64.4205 60.0629 66.6603 64.0981Z" fill="#37364D"/>
<path d="M42.1612 36.7628L40.9466 48.8L38.3292 47.0277L40.9741 36.0161L42.1612 36.7628Z" fill="#2A2A2F"/>
<path d="M55.002 45.5978L61.4064 62.8742L58.7219 61.9033L53.9711 44.7395L55.002 45.5978Z" fill="#2A2A2F"/>
<path d="M98.4462 80.1052C96.9412 79.0138 95.1809 78.3319 93.3333 78.1255C90.1147 77.7666 85.2109 77.2446 84.5335 77.317C83.5128 77.4264 83.95 80.711 84.5335 82.1123C85.1161 83.5129 90.3548 84.6599 92.213 84.478C93.69 84.333 97.7933 83.1397 99.6764 82.179C100.115 81.9549 100.161 81.3482 99.7622 81.0588L98.4462 80.1052Z" fill="#B9C9DB"/>
<path d="M99.8427 82.0541C100.116 81.7792 100.102 81.3052 99.7622 81.0588L98.4462 80.1052C96.9411 79.0138 95.1808 78.3319 93.3333 78.1255C90.1146 77.7666 85.2108 77.2445 84.5334 77.317C83.9362 77.3811 83.8401 78.5326 83.9784 79.7574C85.0182 80.4088 85.5817 80.7145 86.36 81.0347C87.7553 81.6088 88.2698 81.4973 89.6178 81.29C92.8014 80.8003 92.8596 80.6042 94.5924 80.7065C95.7167 80.7732 98.5542 81.6014 99.8427 82.0541Z" fill="#9BABC0"/>
<path d="M116.545 58.9541V59.8828C116.545 59.8828 116.721 61.5475 115.779 65.1842C115.358 66.812 115.325 68.5208 115.687 70.1624C115.78 70.5804 115.867 70.9632 115.942 71.2835C116.05 71.7482 116.588 71.9596 116.984 71.694C118.89 70.4167 121.024 68.0194 121.31 67.178C121.639 66.2098 121.18 65.258 121.18 65.258C121.18 65.258 119.274 61.1468 116.545 58.9541Z" fill="#B9C9DB"/>
<path d="M116.545 58.9541V59.8828C116.545 59.8828 116.721 61.5475 115.779 65.1842C115.358 66.812 115.325 68.5208 115.687 70.1624C115.78 70.5799 115.867 70.9633 115.942 71.2835C115.969 71.3992 116.022 71.4984 116.094 71.5793C116.241 68.8983 117.695 66.5799 118.026 64.4428C118.2 63.326 117.485 61.0556 116.763 59.1414C116.69 59.0796 116.619 59.0137 116.545 58.9541Z" fill="#9BABC0"/>
<path d="M120.014 79.8654C120.614 78.6664 121.318 74.7695 120.396 75.6044C120.305 75.6862 118.688 78.7207 118.438 78.9799C115.578 81.9486 100.281 91.0728 97.7631 91.385C95.1839 91.7052 94.5559 90.451 94.1552 90.8881C93.7541 91.3254 93.9097 94.0322 93.2987 94.7198C92.6871 95.4072 96.7241 93.9729 100.035 92.4604C100.573 92.2141 114.061 84.8814 120.014 79.8654Z" fill="#2A2A2F"/>
<path d="M57.297 44.5606L71.2311 64.5251C71.2311 64.5251 75.1462 65.1726 79.998 63.7899C80.6656 63.6 75.7684 65.6125 75.7684 65.6125L70.684 66.4975C70.684 66.4975 59.2246 47.1745 56.0334 44.5606C56.1972 44.0247 57.297 44.5606 57.297 44.5606Z" fill="#2A2A2F"/>
<path d="M48.1915 3.59682C42.8292 0.487156 39.1284 -0.292953 37.3552 -0.147059C35.5811 -0.00119738 29.9808 2.41295 24.7327 5.51104C19.4842 8.60877 13.972 12.4496 12.7956 14.0983C11.6197 15.7466 12.2432 16.689 13.5641 17.7809C14.8841 18.8723 18.3901 20.867 18.3901 20.867C18.3901 20.867 20.4689 17.212 23.6675 14.8081C26.8662 12.4052 36.4879 6.9383 38.383 6.20932C40.2781 5.48037 43.5701 4.16837 44.9493 3.94999C46.3281 3.73072 48.1915 3.59682 48.1915 3.59682Z" fill="#2A2A2F"/>
<path d="M100.752 46.333C100.752 46.333 100.882 51.1492 99.5652 52.314C94.2313 57.0324 87.149 61.6552 78.6832 64.2067C77.9076 64.4401 72.5794 64.9623 72.5794 64.9623L59.2405 44.7719C59.2405 44.7719 62.4267 43.479 63.1432 43.1668C69.3394 40.4663 80.3341 34.5462 84.2306 30.9926C84.9008 30.3815 85.487 29.384 85.487 29.384C85.487 29.384 94.2522 38.2087 100.752 46.333Z" fill="#37364D"/>
<path d="M77.1253 38.4128L75.8186 39.1672C75.087 39.5892 74.3669 40.062 73.6616 40.5824C73.4311 40.7522 73.304 41.0974 73.3653 41.3847L73.5272 42.1452C73.5882 42.433 73.819 42.5713 74.0631 42.4672C74.8117 42.1483 75.5535 41.7765 76.2851 41.3545L77.5918 40.6001C78.323 40.1772 79.0435 39.7049 79.7489 39.1845C79.9788 39.0146 80.1064 38.6699 80.0446 38.3822L79.8827 37.6216C79.8214 37.3343 79.5914 37.1956 79.3472 37.2996C78.5987 37.6185 77.8569 37.9899 77.1253 38.4128Z" fill="#514E74"/>
<path d="M77.4122 39.3815C77.3975 39.0088 77.317 37.9783 77.317 37.9783L76.0175 38.0059C76.0175 38.0059 76.1624 39.4665 76.1784 39.5199C76.2518 39.7574 76.5685 40.0202 76.705 40.0064C77.0239 39.973 77.4278 39.7849 77.4122 39.3815Z" fill="#514E74"/>
<path d="M77.208 37.6644C77.4068 37.9374 77.3263 38.2999 77.0275 38.4729C76.7286 38.6468 76.3256 38.5654 76.1268 38.2923C75.9276 38.0192 76.0085 37.6568 76.3074 37.4834C76.6058 37.3099 77.0092 37.3913 77.208 37.6644Z" fill="#5B5783"/>
<path d="M69.593 18.134L69.8434 18.2914C69.7598 18.2385 69.6766 18.1865 69.593 18.134Z" fill="#1F1E20"/>
<path d="M83.515 27.4137L94.2073 43.9367C97.1417 45.0392 100.863 46.3566 100.863 46.3566C100.863 46.3566 89.1549 32.6693 83.0311 26.9512C82.8617 26.8266 82.678 26.6945 82.4858 26.5576L83.515 27.4137Z" fill="#5B5783"/>
<path d="M82.4841 26.5567C79.897 24.7105 75.3538 21.7663 70.5928 18.7633L74.2402 31.3635L71.6232 29.5908L69.4044 18.0152C61.6253 13.1296 53.6575 8.32012 52.9895 8.06703C51.6642 7.56447 50.9606 12.2597 50.9606 12.2597L60.8358 22.3151C60.8358 22.3151 89.7549 41.9455 90.8281 42.565C90.9482 42.6345 91.1714 42.7367 91.4654 42.8626L82.4841 26.5567Z" fill="#5B5783"/>
<path d="M59.2405 44.7719C59.2405 44.7719 62.4267 43.479 63.1432 43.1668C69.3395 40.4663 80.3342 34.5462 84.2306 30.9926C84.9009 30.3815 85.487 29.384 85.487 29.384C85.487 29.384 85.9861 29.8874 86.8284 30.756L87.8678 30.1561L75.4606 21.2081L47.83 37.1609L60.0215 45.9536L59.2405 44.7719Z" fill="#2A2A2F"/>
<path d="M43.757 33.2008L46.397 34.9482C47.9002 35.9432 49.8363 36.0027 51.0211 35.0447L72.8299 22.4534C74.1197 21.9824 74.1637 20.6815 73.2898 20.0931L69.4529 17.5127L72.1605 18.4947L77.4905 22.2212L48.4953 37.6407L42.3115 33.4187L43.757 33.2008Z" fill="#2A2A2F"/>
<path d="M109.276 75.1222C109.276 75.9978 108.566 76.7077 107.69 76.7077C106.815 76.7077 106.104 75.9978 106.104 75.1222C106.104 74.2459 106.815 73.5357 107.69 73.5357C108.566 73.5357 109.276 74.2459 109.276 75.1222Z" fill="#e3e3e3"/>
<path d="M11.0842 30.6368L9.30251 31.0411C9.30251 31.0411 6.43116 29.082 5.84811 28.5536C5.2646 28.0248 5.53323 27.2807 5.60175 26.7404C5.67109 26.2 7.17215 24.3832 7.17215 24.3832C7.17215 24.3832 6.23193 25.8233 6.54193 26.7226C6.85192 27.6214 11.0842 30.6368 11.0842 30.6368Z" fill="#EF2B63"/>
<path d="M25.6721 58.4356C25.6721 63.1966 22.3088 65.1144 18.1597 62.719C14.0111 60.3235 10.6475 54.5222 10.6475 49.7611C10.6475 45.0005 14.0111 43.0832 18.1597 45.4782C22.3088 47.8741 25.6721 53.6749 25.6721 58.4356Z" fill="#34323E"/>
<path d="M25.2037 58.3497C25.2037 62.9293 21.9681 64.7737 17.9765 62.4695C13.9857 60.1652 10.7502 54.5845 10.7502 50.0048C10.7502 45.4252 13.9857 43.5804 17.9765 45.8847C21.9681 48.1889 25.2037 53.7697 25.2037 58.3497Z" fill="#292832"/>
<path d="M24.1834 57.7822C24.1834 61.6823 21.4277 63.2531 18.0294 61.2909C14.6302 59.3286 11.8754 54.576 11.8754 50.6764C11.8754 46.7764 14.6302 45.2055 18.0294 47.1678C21.4277 49.1301 24.1834 53.8826 24.1834 57.7822Z" fill="#494754"/>
<path d="M23.9909 57.3762C23.9909 61.0725 21.3797 62.5615 18.1584 60.7016C14.9371 58.8416 12.3259 54.3376 12.3259 50.6417C12.3259 46.945 14.9371 45.4564 18.1584 47.3159C21.3797 49.1759 23.9909 53.6799 23.9909 57.3762Z" fill="#B9B8BB"/>
<mask id="mask0_4_342" style="mask-type:luminance" maskUnits="userSpaceOnUse" x="12" y="46" width="12" height="16" fill="#000000">
<path d="M12.7444 51.7581C12.989 53.8795 14.052 56.3012 15.73 58.2283C17.4076 60.151 19.3049 61.1192 20.8278 61.0249C21.5015 60.9795 22.1006 60.7296 22.5703 60.2555C22.7251 60.1109 22.8647 59.9362 22.9843 59.7365L23.0542 59.6213C23.1396 59.4767 23.2143 59.3268 23.2743 59.1672C23.3588 58.9573 23.4286 58.738 23.4838 58.5032C23.5785 58.0887 23.6239 57.6395 23.6239 57.1702C23.6239 56.9554 23.6137 56.7357 23.5937 56.516C23.5888 56.4008 23.5736 56.2914 23.5585 56.1816C23.5487 56.1064 23.5385 56.0317 23.5287 55.9565C23.5185 55.8867 23.5087 55.8173 23.494 55.747C23.4589 55.5376 23.4189 55.3227 23.3642 55.1079C23.3388 55.003 23.3139 54.9033 23.2841 54.7984C23.2641 54.7085 23.2396 54.6236 23.2094 54.5391C23.1743 54.4137 23.1342 54.2843 23.0893 54.1593C23.0595 54.0645 23.0293 53.9694 22.9946 53.8795C22.85 53.4753 22.6801 53.0754 22.4853 52.6765C22.4453 52.5915 22.4057 52.5119 22.3657 52.4314C22.2256 52.1623 22.0811 51.8973 21.9214 51.6326C21.8814 51.5682 21.8413 51.5028 21.8013 51.4383C21.7261 51.3182 21.6461 51.1986 21.5718 51.0838C21.2721 50.6342 20.942 50.2001 20.588 49.7905C20.4079 49.5859 20.2282 49.3911 20.0436 49.2114C19.9591 49.1216 19.8689 49.0362 19.7839 48.9566L19.7043 48.8819C19.6345 48.8169 19.5593 48.752 19.4895 48.692C18.6209 47.9381 17.7323 47.4289 16.8935 47.1745C15.4156 46.7297 14.0924 47.0744 13.3333 48.2828L13.2634 48.3926C13.1189 48.6372 13.009 48.9068 12.9187 49.1914C12.6892 49.9404 12.6341 50.8188 12.7444 51.7581Z" fill="white"/>
</mask>
<g mask="url(#mask0_4_342)">
<path d="M12.7444 51.7581C12.989 53.8795 14.052 56.3012 15.73 58.2283C17.4076 60.151 19.3049 61.1192 20.8278 61.0249C21.5015 60.9795 22.1006 60.7296 22.5703 60.2555C22.7251 60.1109 22.8647 59.9362 22.9843 59.7365L23.0542 59.6213C23.1396 59.4767 23.2143 59.3268 23.2743 59.1672C23.3588 58.9573 23.4286 58.738 23.4838 58.5032C23.5785 58.0887 23.6239 57.6395 23.6239 57.1702C23.6239 56.9554 23.6137 56.7357 23.5937 56.516C23.5888 56.4008 23.5736 56.2914 23.5585 56.1816C23.5487 56.1064 23.5385 56.0317 23.5287 55.9565C23.5185 55.8867 23.5087 55.8173 23.494 55.747C23.4589 55.5376 23.4189 55.3227 23.3642 55.1079C23.3388 55.003 23.3139 54.9033 23.2841 54.7984C23.2641 54.7085 23.2396 54.6236 23.2094 54.5391C23.1743 54.4137 23.1342 54.2843 23.0893 54.1593C23.0595 54.0645 23.0293 53.9694 22.9946 53.8795C22.85 53.4753 22.6801 53.0754 22.4853 52.6765C22.4453 52.5915 22.4057 52.5119 22.3657 52.4314C22.2256 52.1623 22.0811 51.8973 21.9214 51.6326C21.8814 51.5682 21.8413 51.5028 21.8013 51.4383C21.7261 51.3182 21.6461 51.1986 21.5718 51.0838C21.2721 50.6342 20.942 50.2001 20.588 49.7905C20.4079 49.5859 20.2282 49.3911 20.0436 49.2114C19.9591 49.1216 19.8689 49.0362 19.7839 48.9566L19.7043 48.8819C19.6345 48.8169 19.5593 48.752 19.4895 48.692C18.6209 47.9381 17.7323 47.4289 16.8935 47.1745C15.4156 46.7297 14.0924 47.0744 13.3333 48.2828L13.2634 48.3926C13.1189 48.6372 13.009 48.9068 12.9187 49.1914C12.6892 49.9404 12.6341 50.8188 12.7444 51.7581Z" fill="url(#paint0_linear_4_342)"/>
</g>
<path d="M19.9539 49.9853L20.009 51.6228C20.6232 51.573 21.232 51.513 21.8013 51.4383C21.7261 51.3182 21.6461 51.1986 21.5719 51.0838C21.2721 50.6342 20.9421 50.2001 20.5881 49.7905C20.4079 49.5859 20.2282 49.3911 20.0437 49.2114C19.9591 49.1216 19.8689 49.0362 19.784 48.9566L19.7043 48.8819C19.6345 48.8169 19.5593 48.752 19.4895 48.692C18.6209 47.9381 17.7323 47.4289 16.8935 47.1745C15.4156 46.7297 14.0924 47.0744 13.3333 48.2828C17.5722 46.8298 19.9539 49.9853 19.9539 49.9853Z" fill="#34323E"/>
<path d="M13.0936 51.7327C13.0936 51.7327 14.5065 53.6051 15.9595 54.0992C17.4125 54.5938 20.2234 57.9939 20.2234 57.9939L20.009 51.6228C16.6885 51.8724 13.0936 51.7327 13.0936 51.7327Z" fill="#34323E"/>
<mask id="mask1_4_342" style="mask-type:luminance" maskUnits="userSpaceOnUse" x="15" y="47" width="9" height="12" fill="#000000">
<path d="M16.0045 50.6342C16.2144 52.4568 17.1279 54.5391 18.5707 56.1913C19.365 57.1049 20.2234 57.7689 21.0475 58.1585V58.1638C21.7164 58.4831 22.3604 58.6281 22.9444 58.593C22.9897 58.593 23.0346 58.5881 23.0796 58.5783C23.2197 58.5681 23.354 58.5427 23.4838 58.5032C23.5786 58.0887 23.6239 57.6395 23.6239 57.1702C23.6239 56.9554 23.6137 56.7357 23.5937 56.516C23.5888 56.4008 23.5737 56.2914 23.5586 56.1816C23.5488 56.1064 23.5385 56.0317 23.5288 55.9565C23.5185 55.8867 23.5087 55.8173 23.4941 55.747C23.4589 55.5376 23.4189 55.3227 23.3642 55.1079C23.3388 55.003 23.3139 54.9033 23.2841 54.7984C23.2641 54.7085 23.2397 54.6236 23.2094 54.5391C23.1743 54.4137 23.1343 54.2843 23.0894 54.1593C23.0596 54.0645 23.0293 53.9694 22.9946 53.8795C22.8501 53.4752 22.6802 53.0754 22.4854 52.6765C22.4453 52.5915 22.4058 52.5119 22.3657 52.4314C22.2256 52.1623 22.0811 51.8973 21.9214 51.6326C21.8116 51.4481 21.6915 51.2635 21.5719 51.0838C21.2721 50.6342 20.9421 50.2001 20.5881 49.7905C20.4079 49.5859 20.2283 49.3911 20.0437 49.2114C19.9592 49.1216 19.8689 49.0362 19.784 48.9566L19.7043 48.8819C19.6345 48.8169 19.5594 48.752 19.4895 48.6919C18.6209 47.9381 17.7323 47.4289 16.8935 47.1745C16.7285 47.3337 16.5786 47.5236 16.4488 47.7486C16.3287 47.9581 16.2295 48.1827 16.1543 48.4322C16.0494 48.7871 15.9844 49.1763 15.9644 49.5912C15.9498 49.9252 15.9644 50.2748 16.0045 50.6342Z" fill="white"/>
</mask>
<g mask="url(#mask1_4_342)">
<path d="M16.0045 50.6342C16.2144 52.4568 17.1279 54.5391 18.5707 56.1913C19.365 57.1049 20.2234 57.7689 21.0475 58.1585V58.1638C21.7164 58.4831 22.3604 58.6281 22.9444 58.593C22.9897 58.593 23.0346 58.5881 23.0796 58.5783C23.2197 58.5681 23.354 58.5427 23.4838 58.5032C23.5786 58.0887 23.6239 57.6395 23.6239 57.1702C23.6239 56.9554 23.6137 56.7357 23.5937 56.516C23.5888 56.4008 23.5737 56.2914 23.5586 56.1816C23.5488 56.1064 23.5385 56.0317 23.5288 55.9565C23.5185 55.8867 23.5087 55.8173 23.4941 55.747C23.4589 55.5376 23.4189 55.3227 23.3642 55.1079C23.3388 55.003 23.3139 54.9033 23.2841 54.7984C23.2641 54.7085 23.2397 54.6236 23.2094 54.5391C23.1743 54.4137 23.1343 54.2843 23.0894 54.1593C23.0596 54.0645 23.0293 53.9694 22.9946 53.8795C22.8501 53.4752 22.6802 53.0754 22.4854 52.6765C22.4453 52.5915 22.4058 52.5119 22.3657 52.4314C22.2256 52.1623 22.0811 51.8973 21.9214 51.6326C21.8116 51.4481 21.6915 51.2635 21.5719 51.0838C21.2721 50.6342 20.9421 50.2001 20.5881 49.7905C20.4079 49.5859 20.2283 49.3911 20.0437 49.2114C19.9592 49.1216 19.8689 49.0362 19.784 48.9566L19.7043 48.8819C19.6345 48.8169 19.5594 48.752 19.4895 48.6919C18.6209 47.9381 17.7323 47.4289 16.8935 47.1745C16.7285 47.3337 16.5786 47.5236 16.4488 47.7486C16.3287 47.9581 16.2295 48.1827 16.1543 48.4322C16.0494 48.7871 15.9844 49.1763 15.9644 49.5912C15.9498 49.9252 15.9644 50.2748 16.0045 50.6342Z" fill="url(#paint1_linear_4_342)"/>
</g>
<mask id="mask2_4_342" style="mask-type:luminance" maskUnits="userSpaceOnUse" x="19" y="48" width="3" height="7" fill="#000000">
<path d="M20.2002 53.6936L20.0637 54.9732V54.9781L20.2002 53.6936L21.1974 53.1154L21.9214 51.6326C21.8116 51.4481 21.6915 51.2635 21.5719 51.0838C21.2721 50.6342 20.9421 50.2001 20.5881 49.7905C20.4079 49.5859 20.2283 49.3911 20.0437 49.2114C19.9592 49.1216 19.8689 49.0362 19.784 48.9566L19.7044 48.8819C19.5096 48.997 19.3494 49.0962 19.3397 49.1069L20.5872 50.5408L20.2002 53.6936Z" fill="white"/>
</mask>
<g mask="url(#mask2_4_342)">
<path d="M20.2002 53.6936L20.0637 54.9732V54.9781L20.2002 53.6936L21.1974 53.1154L21.9214 51.6326C21.8116 51.4481 21.6915 51.2635 21.5719 51.0838C21.2721 50.6342 20.9421 50.2001 20.5881 49.7905C20.4079 49.5859 20.2283 49.3911 20.0437 49.2114C19.9592 49.1216 19.8689 49.0362 19.784 48.9566L19.7044 48.8819C19.5096 48.997 19.3494 49.0962 19.3397 49.1069L20.5872 50.5408L20.2002 53.6936Z" fill="url(#paint2_linear_4_342)"/>
</g>
<mask id="mask3_4_342" style="mask-type:luminance" maskUnits="userSpaceOnUse" x="20" y="53" width="4" height="8" fill="#000000">
<path d="M20.2002 53.6936L20.0637 54.9732V54.9781L21.0475 58.1585L21.4864 59.5915C21.6363 59.9063 21.192 60.6197 21.397 60.5801C21.7261 60.5152 22.5454 60.0309 22.9843 59.7365L23.0542 59.6213C23.1396 59.4767 23.2143 59.3268 23.2743 59.1672C23.2641 59.0925 23.2396 59.0173 23.1992 58.9372L23.0795 58.5783L21.2818 53.2853L21.1973 53.1154L20.2002 53.6936Z" fill="white"/>
</mask>
<g mask="url(#mask3_4_342)">
<path d="M20.2002 53.6936L20.0637 54.9732V54.9781L21.0475 58.1585L21.4864 59.5915C21.6363 59.9063 21.192 60.6197 21.397 60.5801C21.7261 60.5152 22.5454 60.0309 22.9843 59.7365L23.0542 59.6213C23.1396 59.4767 23.2143 59.3268 23.2743 59.1672C23.2641 59.0925 23.2396 59.0173 23.1992 58.9372L23.0795 58.5783L21.2818 53.2853L21.1973 53.1154L20.2002 53.6936Z" fill="url(#paint3_linear_4_342)"/>
</g>
<mask id="mask4_4_342" style="mask-type:luminance" maskUnits="userSpaceOnUse" x="13" y="48" width="7" height="6" fill="#000000">
<path d="M14.1903 48.9406C14.274 48.8956 14.3878 48.9054 14.511 48.9766L19.2832 50.9971L19.4166 51.0736L19.422 53.6354L18.3617 53.0256L14.4065 51.4752C14.1597 51.3329 13.9577 50.9944 13.944 50.7031C13.9168 50.1441 13.0544 50.0218 13.1607 49.5379C13.1812 49.4458 14.1272 48.9735 14.1903 48.9406Z" fill="white"/>
</mask>
<g mask="url(#mask4_4_342)">
<path d="M14.1903 48.9406C14.274 48.8956 14.3878 48.9054 14.511 48.9766L19.2832 50.9971L19.4166 51.0736L19.422 53.6354L18.3617 53.0256L14.4065 51.4752C14.1597 51.3329 13.9577 50.9944 13.944 50.7031C13.9168 50.1441 13.0544 50.0218 13.1607 49.5379C13.1812 49.4458 14.1272 48.9735 14.1903 48.9406Z" fill="url(#paint4_linear_4_342)"/>
</g>
<path d="M19.2115 55.7221L21.2849 51.4601C21.3864 51.2835 21.3241 50.9597 21.1346 50.7027C20.9385 50.4349 20.7299 50.1752 20.5111 49.9243C20.2923 49.6735 20.0694 49.4391 19.8436 49.2221C19.6265 49.0135 19.389 48.9935 19.2876 49.17L17.2142 53.4317L19.2115 55.7221Z" fill="#E2E0E4"/>
<path d="M18.423 54.2122L18.4182 51.65L18.2847 51.5735L13.5121 49.553C13.2968 49.4289 13.1092 49.492 13.0625 49.706C12.9553 50.1903 12.9179 50.7204 12.945 51.28C12.9588 51.5708 13.1607 51.9097 13.408 52.052L17.3632 53.6024L18.423 54.2122Z" fill="#E2E0E4"/>
<path d="M22.1861 60.1665C22.3257 60.058 22.3306 59.7858 22.2008 59.5136L20.2816 53.8635L20.2003 53.6936L18.423 54.2122L19.0631 55.5509L20.4884 60.1692C20.6375 60.481 20.9137 60.6904 21.1187 60.6499C21.5123 60.5726 21.8725 60.4125 22.1861 60.1665Z" fill="#E2E0E4"/>
<path d="M21.1205 60.0184C21.0969 59.9927 21.0688 59.9548 21.0444 59.9032L19.5825 55.2093L17.7595 53.1194L13.7149 51.5179C13.6566 51.4837 13.565 51.3373 13.5606 51.2506C13.545 50.9188 13.5535 50.6031 13.5868 50.3064L18.5111 52.4141L19.6052 49.8523C19.7555 50.0049 19.9032 50.165 20.0468 50.3291C20.2519 50.5639 20.4507 50.8125 20.6388 51.0678C20.6815 51.1256 20.7033 51.1835 20.7126 51.2199L19.5865 53.8364L21.6502 59.7912C21.4892 59.893 21.3117 59.9686 21.1205 60.0184Z" fill="#444346"/>
<path d="M79.9009 89.7452C79.9009 94.5057 76.5373 96.4231 72.3882 94.0281C68.2395 91.6328 64.8763 85.8313 64.8763 81.0708C64.8763 76.3097 68.2395 74.3918 72.3882 76.7873C76.5373 79.1832 79.9009 84.9846 79.9009 89.7452Z" fill="#34323E"/>
<path d="M79.4318 89.6585C79.4318 94.238 76.1967 96.0829 72.2055 93.7787C68.2147 91.474 64.9791 85.8936 64.9791 81.314C64.9791 76.7345 68.2147 74.8891 72.2055 77.1938C76.1967 79.4985 79.4318 85.0784 79.4318 89.6585Z" fill="#292832"/>
<path d="M78.4115 89.0914C78.4115 92.9913 75.6563 94.5622 72.2579 92.6001C68.8591 90.6378 66.1039 85.8852 66.1039 81.9851C66.1039 78.0856 68.8591 76.5147 72.2579 78.477C75.6563 80.4391 78.4115 85.1914 78.4115 89.0914Z" fill="#494754"/>
<path d="M78.2199 88.6852C78.2199 92.3812 75.6083 93.8702 72.3869 92.0103C69.1656 90.1508 66.5544 85.6467 66.5544 81.9504C66.5544 78.2541 69.1656 76.765 72.3869 78.625C75.6083 80.4846 78.2199 84.9886 78.2199 88.6852Z" fill="#B9B8BB"/>
<mask id="mask5_4_342" style="mask-type:luminance" maskUnits="userSpaceOnUse" x="66" y="78" width="12" height="15" fill="#000000">
<path d="M66.9733 83.0668C67.2175 85.1891 68.2809 87.6104 69.9585 89.5374C71.6361 91.4597 73.5334 92.4283 75.0562 92.3336C75.7305 92.2883 76.3296 92.0387 76.7988 91.5646C76.9535 91.4196 77.0932 91.2454 77.2133 91.0455L77.2831 90.9304C77.3685 90.7858 77.4432 90.636 77.5028 90.4759C77.5878 90.2664 77.6576 90.0467 77.7127 89.8122C77.8075 89.3974 77.8524 88.9486 77.8524 88.479C77.8524 88.2646 77.8421 88.0445 77.8221 87.8247C77.8172 87.7099 77.8026 87.6001 77.7875 87.4903C77.7772 87.4151 77.7674 87.3404 77.7577 87.2657C77.7474 87.1953 77.7376 87.126 77.7221 87.0562C77.6874 86.8463 77.6474 86.6319 77.5927 86.4166C77.5678 86.3121 77.5428 86.212 77.513 86.1076C77.493 86.0178 77.4677 85.9323 77.4379 85.8479C77.4032 85.7228 77.3632 85.5934 77.3178 85.4679C77.288 85.3737 77.2582 85.2785 77.2231 85.1891C77.0785 84.7839 76.9086 84.3845 76.7143 83.9851C76.6738 83.9002 76.6342 83.8206 76.5942 83.741C76.4545 83.4711 76.3096 83.2068 76.1499 82.9418C76.1094 82.8769 76.0698 82.8119 76.0302 82.747C75.9551 82.6274 75.875 82.5072 75.8003 82.3925C75.5005 81.9432 75.171 81.5088 74.8165 81.0993C74.6368 80.8946 74.4572 80.7002 74.2726 80.52C74.1876 80.4302 74.0978 80.3458 74.0128 80.2654L73.9328 80.1905C73.863 80.126 73.7882 80.0607 73.7184 80.0011C72.8494 79.2473 71.9608 78.7379 71.122 78.4832C69.6436 78.0388 68.3209 78.3835 67.5622 79.592L67.4924 79.7018C67.3474 79.9459 67.2375 80.2158 67.1477 80.5006C66.9177 81.249 66.8626 82.128 66.9733 83.0668Z" fill="white"/>
</mask>
<g mask="url(#mask5_4_342)">
<path d="M66.9733 83.0668C67.2175 85.1891 68.2809 87.6104 69.9585 89.5374C71.6361 91.4597 73.5334 92.4283 75.0562 92.3336C75.7305 92.2883 76.3296 92.0387 76.7988 91.5646C76.9535 91.4196 77.0932 91.2454 77.2133 91.0455L77.2831 90.9304C77.3685 90.7858 77.4432 90.636 77.5028 90.4759C77.5878 90.2664 77.6576 90.0467 77.7127 89.8122C77.8075 89.3974 77.8524 88.9486 77.8524 88.479C77.8524 88.2646 77.8421 88.0445 77.8221 87.8247C77.8172 87.7099 77.8026 87.6001 77.7875 87.4903C77.7772 87.4151 77.7674 87.3404 77.7577 87.2657C77.7474 87.1953 77.7376 87.126 77.7221 87.0562C77.6874 86.8463 77.6474 86.6319 77.5927 86.4166C77.5678 86.3121 77.5428 86.212 77.513 86.1076C77.493 86.0178 77.4677 85.9323 77.4379 85.8479C77.4032 85.7228 77.3632 85.5934 77.3178 85.4679C77.288 85.3737 77.2582 85.2785 77.2231 85.1891C77.0785 84.7839 76.9086 84.3845 76.7143 83.9851C76.6738 83.9002 76.6342 83.8206 76.5942 83.741C76.4545 83.4711 76.3096 83.2068 76.1499 82.9418C76.1094 82.8769 76.0698 82.8119 76.0302 82.747C75.9551 82.6274 75.875 82.5072 75.8003 82.3925C75.5005 81.9432 75.171 81.5088 74.8165 81.0993C74.6368 80.8946 74.4572 80.7002 74.2726 80.52C74.1876 80.4302 74.0978 80.3458 74.0128 80.2654L73.9328 80.1905C73.863 80.126 73.7882 80.0607 73.7184 80.0011C72.8494 79.2473 71.9608 78.7379 71.122 78.4832C69.6436 78.0388 68.3209 78.3835 67.5622 79.592L67.4924 79.7018C67.3474 79.9459 67.2375 80.2158 67.1477 80.5006C66.9177 81.249 66.8626 82.128 66.9733 83.0668Z" fill="url(#paint5_linear_4_342)"/>
</g>
<path d="M74.1824 81.2944L74.2375 82.932C74.8513 82.8823 75.4606 82.8221 76.0303 82.747C75.9551 82.6274 75.8751 82.5072 75.8004 82.3926C75.5006 81.9433 75.1711 81.5088 74.8166 81.0993C74.6369 80.8946 74.4573 80.7002 74.2727 80.5201C74.1878 80.4303 74.0979 80.3458 74.013 80.2654L73.9329 80.1905C73.8631 80.126 73.7883 80.0607 73.7185 80.0011C72.8495 79.2473 71.9609 78.7379 71.1221 78.4832C69.6437 78.0388 68.321 78.3835 67.5623 79.592C71.8012 78.1389 74.1824 81.2944 74.1824 81.2944Z" fill="#34323E"/>
<path d="M67.3225 83.0414C67.3225 83.0414 68.735 84.9138 70.188 85.4083C71.6415 85.9026 74.4523 89.303 74.4523 89.303L74.2375 82.932C70.9174 83.1814 67.3225 83.0414 67.3225 83.0414Z" fill="#34323E"/>
<mask id="mask6_4_342" style="mask-type:luminance" maskUnits="userSpaceOnUse" x="70" y="78" width="8" height="12" fill="#000000">
<path d="M70.2335 81.9432C70.4429 83.7655 71.3569 85.8478 72.7997 87.5005C73.5936 88.414 74.4524 89.0784 75.276 89.4675V89.4726C75.9449 89.7919 76.5894 89.9368 77.1734 89.9017C77.2183 89.9017 77.2632 89.8968 77.3086 89.8871C77.4478 89.8772 77.583 89.8518 77.7128 89.8122C77.8076 89.3973 77.8525 88.9486 77.8525 88.479C77.8525 88.2646 77.8423 88.0445 77.8222 87.8247C77.8173 87.7099 77.8027 87.6001 77.7876 87.4903C77.7773 87.4151 77.7676 87.3404 77.7578 87.2657C77.7475 87.1953 77.7377 87.126 77.7222 87.0561C77.6875 86.8463 77.6475 86.6319 77.5928 86.4166C77.5679 86.3121 77.543 86.212 77.5132 86.1076C77.4931 86.0178 77.4678 85.9323 77.438 85.8478C77.4033 85.7228 77.3633 85.5933 77.3179 85.4679C77.2881 85.3737 77.2583 85.2785 77.2232 85.1891C77.0786 84.7839 76.9087 84.3845 76.7144 83.9851C76.6739 83.9001 76.6343 83.8206 76.5943 83.741C76.4546 83.471 76.3097 83.2068 76.15 82.9418C76.0401 82.7572 75.9205 82.5727 75.8004 82.3925C75.5006 81.9432 75.1711 81.5088 74.8166 81.0993C74.637 80.8946 74.4573 80.7002 74.2727 80.52C74.1878 80.4302 74.0979 80.3458 74.013 80.2654L73.9329 80.1905C73.8631 80.126 73.7883 80.0607 73.7185 80.0011C72.8495 79.2473 71.9609 78.7379 71.1221 78.4832C70.9575 78.6432 70.8076 78.8328 70.6778 79.0574C70.5577 79.2668 70.4576 79.4919 70.3833 79.7414C70.2784 80.0958 70.2134 80.4849 70.1934 80.9C70.1788 81.2344 70.1934 81.5834 70.2335 81.9432Z" fill="white"/>
</mask>
<g mask="url(#mask6_4_342)">
<path d="M70.2335 81.9432C70.4429 83.7655 71.3569 85.8478 72.7997 87.5005C73.5936 88.414 74.4524 89.0784 75.276 89.4675V89.4726C75.9449 89.7919 76.5894 89.9368 77.1734 89.9017C77.2183 89.9017 77.2632 89.8968 77.3086 89.8871C77.4478 89.8772 77.583 89.8518 77.7128 89.8122C77.8076 89.3973 77.8525 88.9486 77.8525 88.479C77.8525 88.2646 77.8423 88.0445 77.8222 87.8247C77.8173 87.7099 77.8027 87.6001 77.7876 87.4903C77.7773 87.4151 77.7676 87.3404 77.7578 87.2657C77.7475 87.1953 77.7377 87.126 77.7222 87.0561C77.6875 86.8463 77.6475 86.6319 77.5928 86.4166C77.5679 86.3121 77.543 86.212 77.5132 86.1076C77.4931 86.0178 77.4678 85.9323 77.438 85.8478C77.4033 85.7228 77.3633 85.5933 77.3179 85.4679C77.2881 85.3737 77.2583 85.2785 77.2232 85.1891C77.0786 84.7839 76.9087 84.3845 76.7144 83.9851C76.6739 83.9001 76.6343 83.8206 76.5943 83.741C76.4546 83.471 76.3097 83.2068 76.15 82.9418C76.0401 82.7572 75.9205 82.5727 75.8004 82.3925C75.5006 81.9432 75.1711 81.5088 74.8166 81.0993C74.637 80.8946 74.4573 80.7002 74.2727 80.52C74.1878 80.4302 74.0979 80.3458 74.013 80.2654L73.9329 80.1905C73.8631 80.126 73.7883 80.0607 73.7185 80.0011C72.8495 79.2473 71.9609 78.7379 71.1221 78.4832C70.9575 78.6432 70.8076 78.8328 70.6778 79.0574C70.5577 79.2668 70.4576 79.4919 70.3833 79.7414C70.2784 80.0958 70.2134 80.4849 70.1934 80.9C70.1788 81.2344 70.1934 81.5834 70.2335 81.9432Z" fill="url(#paint6_linear_4_342)"/>
</g>
<mask id="mask7_4_342" style="mask-type:luminance" maskUnits="userSpaceOnUse" x="73" y="80" width="4" height="7" fill="#000000">
<path d="M74.4292 85.0028L74.2926 86.2824V86.2872L74.4292 85.0028L75.4259 84.425L76.1499 82.9418C76.0401 82.7572 75.9204 82.5727 75.8004 82.3925C75.5006 81.9432 75.171 81.5088 74.8166 81.0993C74.6369 80.8946 74.4572 80.7002 74.2726 80.52C74.1877 80.4302 74.0978 80.3458 74.0129 80.2654L73.9329 80.1905C73.7381 80.3057 73.5784 80.4057 73.5686 80.4156L74.8157 81.85L74.4292 85.0028Z" fill="white"/>
</mask>
<g mask="url(#mask7_4_342)">
<path d="M74.4292 85.0028L74.2926 86.2824V86.2872L74.4292 85.0028L75.4259 84.425L76.1499 82.9418C76.0401 82.7572 75.9204 82.5727 75.8004 82.3925C75.5006 81.9432 75.171 81.5088 74.8166 81.0993C74.6369 80.8946 74.4572 80.7002 74.2726 80.52C74.1877 80.4302 74.0978 80.3458 74.0129 80.2654L73.9329 80.1905C73.7381 80.3057 73.5784 80.4057 73.5686 80.4156L74.8157 81.85L74.4292 85.0028Z" fill="url(#paint7_linear_4_342)"/>
</g>
<mask id="mask8_4_342" style="mask-type:luminance" maskUnits="userSpaceOnUse" x="74" y="84" width="4" height="8" fill="#000000">
<path d="M74.4291 85.0028L74.2926 86.2824V86.2872L75.2759 89.4676L75.7154 90.9007C75.8653 91.2151 75.4209 91.9288 75.6255 91.8894C75.9551 91.8238 76.7739 91.34 77.2133 91.0455L77.2831 90.9304C77.3685 90.7858 77.4432 90.6361 77.5028 90.4759C77.493 90.4012 77.4677 90.326 77.4277 90.2469L77.3085 89.8871L75.5108 84.5949L75.4258 84.425L74.4291 85.0028Z" fill="white"/>
</mask>
<g mask="url(#mask8_4_342)">
<path d="M74.4291 85.0028L74.2926 86.2824V86.2872L75.2759 89.4676L75.7154 90.9007C75.8653 91.2151 75.4209 91.9288 75.6255 91.8894C75.9551 91.8238 76.7739 91.34 77.2133 91.0455L77.2831 90.9304C77.3685 90.7858 77.4432 90.6361 77.5028 90.4759C77.493 90.4012 77.4677 90.326 77.4277 90.2469L77.3085 89.8871L75.5108 84.5949L75.4258 84.425L74.4291 85.0028Z" fill="url(#paint8_linear_4_342)"/>
</g>
<mask id="mask9_4_342" style="mask-type:luminance" maskUnits="userSpaceOnUse" x="67" y="80" width="7" height="5" fill="#000000">
<path d="M68.4189 80.2492C68.5029 80.2047 68.6168 80.215 68.7395 80.2853L73.5121 82.3058L73.6451 82.3828L73.6505 84.9445L72.5902 84.3348L68.6355 82.7839C68.3886 82.642 68.1867 82.303 68.1725 82.0122C68.1453 81.4528 67.2834 81.3309 67.3897 80.847C67.4097 80.7549 68.3557 80.2822 68.4189 80.2492Z" fill="white"/>
</mask>
<g mask="url(#mask9_4_342)">
<path d="M68.4189 80.2492C68.5029 80.2047 68.6168 80.215 68.7395 80.2853L73.5121 82.3058L73.6451 82.3828L73.6505 84.9445L72.5902 84.3348L68.6355 82.7839C68.3886 82.642 68.1867 82.303 68.1725 82.0122C68.1453 81.4528 67.2834 81.3309 67.3897 80.847C67.4097 80.7549 68.3557 80.2822 68.4189 80.2492Z" fill="url(#paint9_linear_4_342)"/>
</g>
<path d="M73.4406 87.0308L75.514 82.7692C75.6154 82.5927 75.5531 82.2685 75.3637 82.0114C75.1671 81.7442 74.959 81.4839 74.7397 81.2331C74.5209 80.9827 74.2981 80.7478 74.0721 80.5311C73.8551 80.3222 73.618 80.3022 73.5157 80.4792L71.4427 84.7409L73.4406 87.0308Z" fill="#E2E0E4"/>
<path d="M72.6515 85.5214L72.6466 82.9591L72.5132 82.8823L67.741 80.8622C67.5257 80.7381 67.3376 80.8008 67.2909 81.0152C67.1841 81.4995 67.1468 82.0291 67.1739 82.589C67.1877 82.8795 67.3896 83.2188 67.6369 83.3607L71.5917 84.9116L72.6515 85.5214Z" fill="#E2E0E4"/>
<path d="M76.415 91.4757C76.5542 91.3667 76.5591 91.0949 76.4292 90.8228L74.5105 85.1722L74.4292 85.0028L72.6515 85.5214L73.2919 86.8597L74.7173 91.4779C74.8663 91.7896 75.1425 91.9991 75.3476 91.9587C75.7407 91.8817 76.101 91.7211 76.415 91.4757Z" fill="#E2E0E4"/>
<path d="M75.3493 91.3271C75.3258 91.3018 75.2973 91.2639 75.2733 91.2123L73.8114 86.5184L71.9884 84.4286L67.9438 82.8267C67.8846 82.7928 67.793 82.6465 67.789 82.5593C67.773 82.2275 67.7824 81.9118 67.8157 81.615L72.7395 83.7237L73.8336 81.1614C73.9839 81.3145 74.1316 81.4737 74.2748 81.6378C74.4798 81.8725 74.6795 82.1211 74.8677 82.3765C74.9099 82.4344 74.9322 82.492 74.9415 82.529L73.8149 85.146L75.879 91.1003C75.7176 91.2017 75.5401 91.2778 75.3493 91.3271Z" fill="#444346"/>
<path d="M121.356 65.8046C121.282 65.476 121.18 65.258 121.18 65.258C121.18 65.258 119.273 61.1468 116.545 58.9541C116.545 58.9541 117.166 60.8141 117.623 61.5075C118.074 62.1901 119.954 63.5506 121.356 65.8046Z" fill="#FAFDFF"/>
<path d="M115.779 65.1842C116.008 64.2978 116.171 63.5306 116.286 62.8742H116.287C116.171 63.5301 116.008 64.2987 115.779 65.1842Z" fill="#9EADDF"/>
<path d="M116.604 71.8088C116.319 71.8088 116.047 71.6286 115.955 71.3325C115.984 71.4271 116.033 71.5104 116.093 71.5793C116.094 71.5731 116.094 71.5668 116.094 71.5606C116.096 71.5623 116.097 71.5642 116.098 71.5654C116.228 71.7176 116.419 71.8043 116.617 71.8043C116.69 71.8043 116.763 71.7929 116.834 71.7684C116.759 71.7958 116.681 71.8088 116.604 71.8088Z" fill="#D3DFEB"/>
<path d="M116.093 71.5793C116.032 71.5104 115.984 71.4272 115.955 71.3325C115.955 71.3319 115.955 71.3311 115.955 71.3307C115.954 71.3293 115.954 71.328 115.953 71.3267C115.953 71.3259 115.953 71.3245 115.952 71.3236C115.952 71.3222 115.952 71.3205 115.951 71.3191C115.951 71.3177 115.95 71.316 115.95 71.3148C115.95 71.3137 115.949 71.3128 115.949 71.312C115.949 71.3108 115.948 71.3094 115.948 71.3076C115.948 71.3071 115.948 71.3062 115.947 71.3057C115.947 71.3035 115.946 71.3014 115.946 71.2991C115.945 71.2986 115.945 71.2983 115.945 71.2977C115.945 71.296 115.944 71.2937 115.944 71.292C115.944 71.2915 115.944 71.2911 115.944 71.2903C115.943 71.288 115.942 71.2857 115.942 71.2835C115.867 70.9633 115.78 70.5799 115.687 70.1624C115.52 69.4058 115.437 68.6346 115.437 67.864C115.437 66.9628 115.552 66.0617 115.779 65.1842C116.008 64.2987 116.171 63.5302 116.287 62.8742C116.29 62.8786 116.292 62.8831 116.295 62.8875C116.18 63.54 116.018 64.3005 115.791 65.178C115.564 66.0555 115.449 66.9566 115.449 67.858C115.449 68.6289 115.532 69.3995 115.699 70.1565C115.791 70.5738 115.879 70.9575 115.954 71.2772C115.98 71.3872 116.029 71.4824 116.094 71.5606C116.094 71.5668 116.094 71.5731 116.093 71.5793Z" fill="#BECCDB"/>
<path d="M94.5377 80.5476V80.0692C94.5377 79.6088 94.1784 79.229 93.719 79.2032L88.3046 78.9035C87.7949 78.875 87.3652 79.281 87.3652 79.7921V80.4827C87.3652 81.3665 88.1267 82.0572 89.0059 81.9718L93.654 81.5212C94.1553 81.4728 94.5377 81.0512 94.5377 80.5476Z" fill="white"/>
<path d="M116.244 67.9518L116.162 67.1073C116.089 66.357 116.164 65.5992 116.384 64.8778L117.186 62.0678C117.297 61.704 117.822 61.543 117.931 61.9077L117.934 61.9193C118.424 63.5609 118.483 65.1482 117.835 66.7337L117.276 68.1032C117.064 68.6221 116.299 68.51 116.244 67.9518Z" fill="white"/>
<path d="M91.1332 83.8317C89.9867 83.8317 85.6272 82.6197 85.2407 81.9811C84.8355 81.3103 84.7275 79.9438 84.7168 79.7902L85.589 79.7275C85.6237 80.2101 85.7562 81.0947 85.9665 81.4884C86.4433 81.826 89.9017 82.957 91.1221 82.957H91.1395C92.9985 82.9399 97.4269 81.4666 98.0033 81.1022L98.4707 81.8414C97.7182 82.3164 93.131 83.8134 91.1474 83.8317H91.1332Z" fill="white"/>
<path d="M117.084 71.1318L116.508 70.4737C117.837 69.3123 119.818 67.0847 120.163 66.3632C120.348 65.9501 119.711 63.705 118.999 61.8677L119.815 61.5515C120.302 62.8084 121.387 65.83 120.952 66.7404C120.493 67.6997 118.283 70.0846 117.084 71.1318Z" fill="white"/>
<path d="M4.29774 32.322C4.29774 32.322 2.51342 34.6943 2.45868 37.2827C3.27212 38.6401 3.94859 39.5963 5.43807 39.7467C3.716 37.8467 3.68888 36.3848 3.90768 35.2364C4.12607 34.0885 4.29774 32.322 4.29774 32.322Z" fill="#e1e1e1"/>
<path d="M64.4917 63.4853C64.4917 63.4853 65.1162 63.395 65.3732 63.1837C65.6303 62.9725 65.4382 62.1964 64.9992 61.918C64.5607 61.64 63.3296 62.2573 63.1263 62.1528C62.9227 62.0474 61.6733 62.5757 61.6733 62.5757L62.079 63.4688L64.4917 63.4853Z" fill="#e1e1e1"/>
<path d="M62.014 60.2457C63.1734 59.9557 64.3547 60.3347 64.5108 61.6498C64.7003 63.2464 63.998 63.5004 63.5746 63.7005C63.1512 63.9011 61.5679 64.5927 59.5616 64.615C57.5558 64.6372 57.3108 63.5649 57.3103 62.8515C57.3103 62.7492 57.313 62.7559 57.3183 62.6616C57.3744 61.6435 57.7421 61.3407 58.4253 61.137C59.8987 60.6975 62.014 60.2457 62.014 60.2457Z" fill="#e1e1e1"/>
<path d="M64.0558 60.9079C63.3905 60.7011 62.0122 60.9697 60.6575 61.2642C59.3028 61.5581 58.2852 61.5354 58.1784 62.8515C58.0713 64.1675 58.4978 64.4877 59.0604 64.5736C59.6226 64.6598 60.69 64.6523 62.2969 64.1848C63.9033 63.7174 64.1297 63.4537 64.3805 63.0103C64.6314 62.5673 64.7194 61.1147 64.0558 60.9079Z" fill="#eeeeee"/>
<path d="M72.5795 64.9623C72.5795 64.9623 77.9076 64.4401 78.6833 64.2067C87.1491 61.6552 94.2313 57.0324 99.5652 52.314C100.882 51.1492 100.752 46.333 100.752 46.333C100.392 45.8838 100.024 45.4315 99.6524 44.9787L95.5304 43.9331L83.3233 51.6522L81.3771 56.657L70.8507 62.3463L72.5795 64.9623Z" fill="#434160"/>
<path d="M52.6051 42.0852C52.6043 42.0844 52.6043 42.0844 52.6035 42.0835L52.6043 42.0844" fill="#2C2C33"/>
<path d="M52.6039 42.0847C47.4858 38.432 34.1303 30.1058 24.763 24.5517L24.7327 24.5344C24.5491 24.425 24.3654 24.3156 24.1857 24.2106L24.155 24.1933C23.8054 23.9829 23.4594 23.7819 23.1276 23.5853L23.1232 23.584C23.0035 23.5137 22.8852 23.4439 22.7674 23.3749C22.7153 23.3443 22.6633 23.3136 22.6113 23.2833C22.5063 23.2179 22.4062 23.1566 22.3008 23.0996C21.9904 22.9208 21.6884 22.7412 21.3913 22.5708C21.2908 22.5094 21.1943 22.4525 21.0982 22.4C20.7091 22.1728 20.3328 21.9584 19.9743 21.7529C19.703 21.595 19.4406 21.4465 19.1871 21.3069C18.9768 21.1885 18.7717 21.0707 18.5747 20.9608C18.5142 20.9261 18.4542 20.8923 18.3946 20.859C18.504 20.6686 20.5561 17.1466 23.6676 14.8081C24.5895 14.1161 26.0447 13.1688 27.6943 12.1543C28.7462 12.7174 29.8514 13.324 30.9962 13.9662C30.9962 13.9666 30.9957 13.9666 30.9953 13.9671C30.994 13.9662 30.9926 13.9654 30.9908 13.9645C28.6728 15.3988 26.5913 16.8073 25.1437 18.001C25.0654 18.0664 24.9747 18.1514 24.875 18.2505C24.5286 18.5947 24.0776 19.1147 23.6782 19.5928C23.6484 19.6288 23.6208 19.6653 23.5955 19.7031C23.4523 19.9174 23.3847 20.1607 23.3865 20.4018C23.3896 20.8363 23.6177 21.2619 24.0362 21.4919C25.1744 22.1176 26.3022 22.7465 27.4168 23.3749C29.8082 24.7247 32.1392 26.0755 34.3834 27.4097C38.4764 29.843 42.2808 32.2192 45.636 34.4217C46.0132 34.6703 46.385 34.9167 46.7506 35.1609C46.6305 35.0954 46.5126 35.0247 46.397 34.9482L43.757 33.2008L42.3115 33.4187L48.4953 37.6408L53.7438 41.4265L52.6039 42.0847Z" fill="#383842"/>
<path d="M70.2 66.498C70.1996 66.498 70.1996 66.4975 70.1996 66.4975C70.2142 66.4966 70.3891 66.4882 70.6692 66.4727C70.6692 66.4731 70.6692 66.4731 70.6692 66.4731C70.3895 66.4887 70.2152 66.4971 70.2 66.498Z" fill="#666EBE"/>
<path d="M70.1996 66.4975C70.1991 66.4971 70.1987 66.4971 70.1987 66.4971C70.1987 66.4971 70.1066 66.3267 69.9274 66.0119C69.8705 65.9069 69.8051 65.7846 69.7264 65.649C69.5164 65.2727 69.2363 64.783 68.8996 64.2013C68.8169 64.0572 68.7292 63.9082 68.6376 63.7508L68.6202 63.7245C68.554 63.6111 68.4886 63.4928 68.4188 63.375L68.3574 63.2655C68.2431 63.0681 68.123 62.8648 67.9985 62.6536C67.9331 62.5415 67.866 62.4276 67.7975 62.312C67.3865 61.6209 66.936 60.8688 66.4508 60.0682C66.3543 59.9152 66.2582 59.7627 66.1666 59.6048C65.974 59.2899 65.7769 58.9706 65.576 58.6473C65.471 58.4853 65.3705 58.3195 65.2695 58.1531L65.2566 58.1353C65.0427 57.7942 64.8239 57.4487 64.6006 57.0986C64.4432 56.8496 64.2857 56.6001 64.1238 56.351C63.6426 55.5941 63.1396 54.8246 62.6237 54.0548C62.2741 53.5348 61.9197 53.0096 61.5612 52.4892C61.321 52.1437 61.0804 51.7981 60.8393 51.453C60.468 50.9277 60.0962 50.4118 59.7284 49.9048C59.5669 49.6904 59.4139 49.4805 59.2565 49.2746C59.0857 49.0473 58.9149 48.82 58.745 48.5968C58.5827 48.3868 58.4212 48.1774 58.2638 47.9714C58.1366 47.814 58.0143 47.661 57.892 47.508C57.7781 47.359 57.6603 47.2149 57.5464 47.0748C57.4326 46.9396 57.3231 46.804 57.2137 46.6728C57.0696 46.4975 56.9295 46.3312 56.7899 46.1653L56.7067 46.0688C56.431 45.7455 56.1557 45.4306 55.8799 45.1286C55.8012 45.0414 55.7185 44.9538 55.6393 44.8662C54.5812 43.7205 53.5534 42.7625 52.6043 42.0852L52.6039 42.0847L53.7438 41.4265L60.0188 45.9518L72.3628 64.6376C71.6424 64.5931 71.231 64.5251 71.231 64.5251L57.2969 44.5606C57.2969 44.5606 56.8081 44.3222 56.4336 44.3222C56.2464 44.3222 56.0876 44.3819 56.0334 44.5606C59.1577 47.1202 70.2107 65.7006 70.6692 66.4727C70.3891 66.4882 70.2142 66.4966 70.1996 66.4975Z" fill="#383842"/>
<path d="M45.636 34.4217C42.2808 32.2192 38.4764 29.843 34.3834 27.4097C37.7297 29.3982 40.8838 31.3484 43.7569 33.1986L43.792 33.2204C44.4201 33.626 45.0351 34.0263 45.636 34.4217ZM48.6576 24.5313C42.6842 20.8021 36.3918 16.9941 30.9952 13.9671C30.9957 13.9666 30.9961 13.9666 30.9961 13.9662C36.3923 16.9923 42.6842 20.8012 48.6576 24.5313ZM27.4168 23.3749C26.3022 22.7465 25.1743 22.1176 24.0362 21.4919C23.6177 21.2619 23.3895 20.8363 23.3864 20.4018C23.39 20.8354 23.6195 21.2606 24.0371 21.491C25.1752 22.1176 26.3027 22.746 27.4168 23.3749ZM23.5954 19.7031C23.6208 19.6653 23.6484 19.6288 23.6782 19.5928C24.0775 19.1147 24.5285 18.5947 24.875 18.2505C24.5299 18.5956 24.0793 19.1142 23.6786 19.5928C23.6484 19.6288 23.6208 19.6653 23.5954 19.7031Z" fill="#44435E"/>
<path d="M70.1987 66.498L70.1983 66.4966L70.1987 66.4971C70.1987 66.4971 70.1992 66.4971 70.1996 66.4975C70.1996 66.4975 70.1996 66.498 70.2 66.498C70.1992 66.498 70.1987 66.498 70.1987 66.498ZM67.9985 62.6536C67.9327 62.5424 67.8655 62.4285 67.7975 62.312C67.3866 61.6209 66.936 60.8688 66.4508 60.0682C66.3543 59.9152 66.2582 59.7627 66.1666 59.6048C65.974 59.2899 65.777 58.9706 65.576 58.6473C65.471 58.4853 65.3705 58.3195 65.2695 58.1531L65.2566 58.1353C65.0427 57.7942 64.8239 57.4487 64.6006 57.0986C63.9713 56.1059 63.306 55.0826 62.6237 54.0548C62.2741 53.5348 61.9197 53.0096 61.5612 52.4892C61.321 52.1437 61.0804 51.7981 60.8394 51.453C60.468 50.9277 60.0962 50.4118 59.7284 49.9048C59.5669 49.6904 59.4139 49.4805 59.2565 49.2746C59.0857 49.0473 58.9149 48.82 58.745 48.5968C58.5827 48.3868 58.4212 48.1774 58.2638 47.9714C58.1366 47.814 58.0143 47.661 57.892 47.508C57.7782 47.359 57.6603 47.2149 57.5464 47.0748C57.4326 46.9396 57.3232 46.804 57.2137 46.6728C57.0697 46.4975 56.9296 46.3312 56.7899 46.1653L56.7067 46.0688C56.431 45.7455 56.1557 45.4306 55.88 45.1286C55.8012 45.0414 55.7185 44.9538 55.6393 44.8662C54.5812 43.7205 53.5534 42.7625 52.6043 42.0852C47.4875 38.4333 34.1312 30.1062 24.7629 24.5517C34.1303 30.1058 47.4857 38.4319 52.6034 42.0843C52.6039 42.0847 52.6039 42.0847 52.6043 42.0852C53.5534 42.7625 54.5812 43.7205 55.6393 44.8662C55.7185 44.9538 55.8012 45.0414 55.88 45.1286C56.1557 45.4306 56.431 45.7455 56.7067 46.0688L56.7899 46.1653C56.9296 46.3312 57.0697 46.4975 57.2137 46.6728C57.3232 46.804 57.4326 46.9396 57.5464 47.0748C57.6603 47.2149 57.7782 47.359 57.892 47.508C58.0143 47.661 58.1366 47.814 58.2638 47.9714C58.4212 48.1774 58.5827 48.3868 58.745 48.5968C58.9149 48.82 59.0857 49.0473 59.2565 49.2746C59.4139 49.4805 59.5669 49.6904 59.7284 49.9048C60.0962 50.4118 60.468 50.9277 60.8394 51.453C61.0804 51.7981 61.321 52.1437 61.5612 52.4892C61.9197 53.0096 62.2741 53.5348 62.6237 54.0548C63.1396 54.8246 63.6426 55.5941 64.1238 56.351C64.2857 56.6001 64.4432 56.8496 64.6006 57.0986C64.8239 57.4487 65.0427 57.7942 65.2566 58.1353L65.2695 58.1531C65.3705 58.3195 65.471 58.4853 65.576 58.6473C65.777 58.9706 65.974 59.2899 66.1666 59.6048C66.2582 59.7627 66.3543 59.9152 66.4508 60.0682C66.936 60.8688 67.3866 61.6209 67.7975 62.312C67.866 62.4276 67.9331 62.5415 67.9985 62.6536Z" fill="#5F67BA"/>
<path d="M70.1987 66.4971L70.1983 66.4966L70.1943 66.4896C70.1725 66.4544 70.0854 66.2881 69.9275 66.0123C69.8706 65.9074 69.8052 65.7855 69.7265 65.6494C69.5165 65.2732 69.2363 64.7839 68.8996 64.2018C68.8169 64.0576 68.7293 63.9091 68.6377 63.7512L68.6203 63.7254C68.5541 63.6116 68.4887 63.4932 68.4189 63.3754L68.3575 63.266C68.1827 62.9644 67.9946 62.6496 67.7975 62.3124C67.3866 61.6213 66.9361 60.8692 66.4508 60.0691C66.3543 59.9157 66.2583 59.7627 66.1666 59.6052C65.9741 59.2903 65.777 58.971 65.576 58.6477C65.4711 58.4858 65.3706 58.3195 65.2696 58.1531L65.2567 58.1403C65.0427 57.7951 64.8239 57.4491 64.6007 57.0995C63.9713 56.1068 63.306 55.0835 62.6238 54.0556C62.2742 53.5353 61.9197 53.0105 61.5613 52.4897C61.3211 52.1445 61.0805 51.7985 60.8394 51.4534C60.4681 50.9286 60.0962 50.4122 59.7284 49.9048C59.567 49.6908 59.414 49.4809 59.2565 49.2755C59.0857 49.0482 58.915 48.8205 58.7451 48.5976C58.5827 48.3873 58.4213 48.1778 58.2638 47.9723C58.1367 47.8144 58.0143 47.6619 57.892 47.5085C57.7782 47.3599 57.6603 47.2158 57.5465 47.0753C57.4326 46.9401 57.3232 46.8044 57.2138 46.6732C57.0697 46.498 56.9296 46.3321 56.79 46.1658L56.7068 46.0701C56.4311 45.7459 56.1558 45.431 55.88 45.1295C55.8013 45.0419 55.7185 44.9547 55.6394 44.8671C54.5813 43.7209 53.5535 42.7634 52.6044 42.0852C47.4875 38.4338 34.1312 30.1067 24.763 24.5526L24.7327 24.5353L24.6887 24.513C24.687 24.5117 24.6856 24.5108 24.6838 24.5099C24.6856 24.5108 24.687 24.5117 24.6887 24.5126L24.7327 24.5344L24.763 24.5517C34.1312 30.1062 47.4875 38.4333 52.6044 42.0852C53.5535 42.7625 54.5813 43.7205 55.6394 44.8662C55.7185 44.9538 55.8013 45.0414 55.88 45.1286C56.1558 45.4306 56.4311 45.7455 56.7068 46.0688L56.79 46.1653C56.9296 46.3312 57.0697 46.4975 57.2138 46.6728C57.3232 46.804 57.4326 46.9396 57.5465 47.0748C57.6603 47.2149 57.7782 47.359 57.892 47.508C58.0143 47.661 58.1367 47.814 58.2638 47.9714C58.4213 48.1773 58.5827 48.3868 58.7451 48.5968C58.915 48.82 59.0857 49.0473 59.2565 49.2746C59.414 49.4805 59.567 49.6904 59.7284 49.9048C60.0962 50.4118 60.4681 50.9277 60.8394 51.453C61.0805 51.7981 61.3211 52.1437 61.5613 52.4892C61.9197 53.0096 62.2742 53.5348 62.6238 54.0547C63.306 55.0826 63.9713 56.1059 64.6007 57.0986C64.8239 57.4487 65.0427 57.7942 65.2567 58.1353L65.2696 58.1531C65.3706 58.3195 65.4711 58.4853 65.576 58.6473C65.777 58.9706 65.9741 59.2899 66.1666 59.6048C66.2583 59.7627 66.3543 59.9152 66.4508 60.0682C66.9361 60.8688 67.3866 61.6209 67.7975 62.312C67.8656 62.4285 67.9328 62.5424 67.9986 62.6536C68.1231 62.8648 68.2432 63.0681 68.3575 63.2655L68.4189 63.375C68.4887 63.4928 68.5541 63.6111 68.6203 63.7245L68.6377 63.7508C68.7293 63.9082 68.8169 64.0572 68.8996 64.2013C69.2363 64.783 69.5165 65.2727 69.7265 65.649C69.8052 65.7846 69.8706 65.9069 69.9275 66.0119C70.1067 66.3267 70.1987 66.4971 70.1987 66.4971ZM23.1232 23.5839L23.1201 23.5826C23.0436 23.5377 22.9675 23.4933 22.8919 23.4487C22.8505 23.4238 22.8088 23.3994 22.7674 23.3749C22.8852 23.4439 23.0036 23.5137 23.1232 23.5839Z" fill="#6E80C9"/>
<path d="M24.7327 24.5344L24.6887 24.5126C24.6869 24.5117 24.6856 24.5108 24.6838 24.5099C24.1492 24.1906 23.6266 23.8806 23.1201 23.5826L23.1232 23.5839L23.1276 23.5853C23.4594 23.7819 23.8054 23.9829 24.155 24.1932L24.1857 24.2106C24.3654 24.3156 24.5491 24.425 24.7327 24.5344ZM22.8919 23.4487C22.7981 23.3936 22.7042 23.3384 22.6113 23.2842C22.5063 23.2188 22.4062 23.1574 22.3008 23.1005C21.9904 22.9213 21.6884 22.7416 21.3913 22.5712C21.2908 22.5099 21.1943 22.4534 21.0982 22.4009C20.7091 22.1777 20.3328 21.9593 19.9743 21.7533C19.703 21.5959 19.4406 21.4469 19.1871 21.3073C18.9118 21.1547 18.6459 21.0017 18.3928 20.8621C18.3932 20.8612 18.3941 20.8599 18.3946 20.859C18.4542 20.8923 18.5142 20.9261 18.5747 20.9608C18.7717 21.0707 18.9768 21.1885 19.1871 21.3068C19.4406 21.4465 19.703 21.595 19.9743 21.7529C20.3328 21.9584 20.7091 22.1728 21.0982 22.4C21.1943 22.4525 21.2908 22.5094 21.3913 22.5708C21.6884 22.7412 21.9904 22.9208 22.3008 23.0996C22.4062 23.1566 22.5063 23.2179 22.6113 23.2833C22.6633 23.3135 22.7153 23.3442 22.7674 23.3749C22.8087 23.3994 22.8505 23.4238 22.8919 23.4487Z" fill="#383842"/>
<path d="M70.8975 66.4606L70.9002 66.4602C71.6117 66.4202 72.7499 66.3512 73.7666 66.2681H73.767C72.7485 66.3517 71.6091 66.4206 70.8975 66.4606Z" fill="#666EBE"/>
<path d="M73.7669 66.2681H73.7665C74.7076 66.1911 75.5446 66.1013 75.8444 66.011C77.1266 65.6245 78.8246 65.3497 80.5183 64.985C78.8251 65.3501 77.1275 65.6258 75.8448 66.0123C75.545 66.1022 74.708 66.1911 73.7669 66.2681Z" fill="#6E80C9"/>
<path d="M70.9001 66.4602L75.7684 65.6125C75.7684 65.6125 80.2337 63.7775 80.0553 63.7775C80.0469 63.7775 80.0295 63.781 80.0015 63.789C82.4992 62.9596 84.8707 61.9526 87.106 60.8221C87.3528 61.278 87.5796 61.7174 87.7842 62.1377C86.6692 62.7367 85.5365 63.2967 84.4037 63.8126C83.2602 64.3334 81.8908 64.6887 80.5184 64.985C78.8247 65.3497 77.1267 65.6245 75.8444 66.011C75.5447 66.1013 74.7077 66.1911 73.7666 66.2681C72.7499 66.3512 71.6117 66.4202 70.9001 66.4602Z" fill="#383842"/>
<path d="M13.8634 18.0184C13.754 17.9356 13.6531 17.8569 13.5628 17.7822C12.8121 17.1609 12.2873 16.5889 12.1903 15.908C12.2886 16.5885 12.8138 17.1605 13.5641 17.7809C13.6544 17.8556 13.7554 17.9348 13.8644 18.017C13.8644 18.0175 13.8639 18.0179 13.8634 18.0184Z" fill="white"/>
<path d="M15.8906 19.3744C15.1563 18.9167 14.4056 18.4262 13.8634 18.0183C13.8639 18.0179 13.8643 18.0175 13.8643 18.017C14.4069 18.4262 15.1568 18.9163 15.8906 19.3744Z" fill="#383842"/>
<path d="M17.6478 10.0573C18.3746 9.54675 19.1507 9.01972 19.957 8.48869C19.957 8.48911 19.9574 8.48911 19.9574 8.48911C19.1511 9.02018 18.3746 9.54721 17.6478 10.0573Z" fill="white"/>
<path d="M70.6693 66.4731C70.6693 66.4731 70.6693 66.4731 70.6693 66.4727C70.2108 65.7006 59.1578 47.1202 56.0334 44.5606C56.0877 44.3819 56.2465 44.3223 56.4337 44.3223C56.8082 44.3223 57.297 44.5606 57.297 44.5606L71.2311 64.5251C71.2311 64.5251 71.6425 64.5931 72.3629 64.6376L72.5778 64.9627C72.5778 64.9627 72.8557 64.9356 73.2938 64.8902C74.7735 64.739 78.0847 64.3868 78.6833 64.2067C79.1263 64.0728 79.5657 63.9336 80.0015 63.789C80.0296 63.7811 80.0469 63.7775 80.0554 63.7775C80.2337 63.7775 75.7684 65.6125 75.7684 65.6125L70.9002 66.4602L70.8975 66.4606C70.8156 66.4651 70.7392 66.4691 70.6693 66.4731Z" fill="#383842"/>
<path d="M18.3928 20.8621C18.3923 20.8617 18.3915 20.8617 18.391 20.8612C18.3385 20.8305 18.2905 20.8043 18.2376 20.7781C18.1593 20.73 18.0806 20.686 18.0018 20.6428C17.5402 20.3746 16.7258 19.8957 15.8906 19.3744C15.1568 18.9163 14.4069 18.4262 13.8643 18.017C13.7553 17.9348 13.6544 17.8556 13.5641 17.7809C12.8138 17.1604 12.2886 16.5885 12.1903 15.908C12.1165 15.3912 12.2895 14.8117 12.7974 14.1001C13.4205 13.2257 15.2679 11.73 17.6478 10.0573C18.3746 9.54721 19.1511 9.02018 19.9574 8.48911C21.8685 9.17581 24.5495 10.47 27.6934 12.1539C26.0447 13.1688 24.5895 14.1161 23.6675 14.8081C20.5561 17.1466 18.504 20.6686 18.3946 20.859C18.3941 20.8599 18.3932 20.8612 18.3928 20.8621Z" fill="#383842"/>
<path d="M69.062 40.3422C69.7504 39.9913 70.4509 39.6275 71.1545 39.2543C71.155 39.2547 71.1559 39.2557 71.1563 39.2561C70.4523 39.6279 69.7509 39.9917 69.062 40.3422Z" fill="#44435E"/>
<path d="M60.0188 45.9518L53.7439 41.4265L48.4954 37.6408L59.8067 31.6255C61.6947 32.8481 63.4216 33.9778 64.9244 34.9696C68.1431 37.0999 70.33 38.5912 70.8503 38.9933C70.9384 39.0618 71.0402 39.1494 71.1545 39.2543C70.4509 39.6275 69.7504 39.9913 69.062 40.3422C66.892 41.4465 64.8373 42.4254 63.1446 43.1655C63.0112 43.2242 62.7914 43.3167 62.5228 43.4288C62.2746 43.5315 61.9851 43.6511 61.6818 43.7757C60.5517 44.2395 59.2388 44.771 59.2388 44.771L60.0188 45.9518Z" fill="#383842"/>
<path d="M49.609 35.6705C50.1352 35.5753 50.6213 35.3672 51.0211 35.0443L58.4538 30.7511C58.4551 30.752 58.4546 30.7516 58.456 30.7525L51.0211 35.0447C50.6208 35.3685 50.1352 35.5758 49.609 35.6705Z" fill="#44435E"/>
<path d="M48.4953 37.6407L42.3115 33.4187L43.757 33.2008L46.397 34.9482C46.5126 35.0247 46.6305 35.0954 46.7506 35.1608C46.7515 35.1613 46.7519 35.1617 46.7528 35.1622C47.4417 35.5393 48.1996 35.731 48.9219 35.731C49.1558 35.731 49.3862 35.7105 49.609 35.6705C50.1351 35.5758 50.6208 35.3685 51.0211 35.0447L58.456 30.7525C58.9141 31.0478 59.3655 31.3395 59.8067 31.6255L48.4953 37.6407Z" fill="#383842"/>
<path d="M82.5641 53.6051C81.9325 52.6938 81.2805 51.7772 80.6237 50.8735C81.2814 51.7776 81.9321 52.6925 82.5641 53.6051Z" fill="#44435E"/>
<path d="M73.2937 64.8902C74.7747 64.7386 78.0859 64.385 78.6832 64.2062C81.6701 63.3056 84.4818 62.1465 87.1059 60.8216V60.8221C84.8706 61.9526 82.4991 62.9596 80.0014 63.789C79.5656 63.9336 79.1262 64.0728 78.6832 64.2066C78.0845 64.3868 74.7734 64.739 73.2937 64.8902ZM85.5004 58.0673C84.6171 56.6374 83.6177 55.1266 82.5641 53.6051C83.6177 55.1262 84.6175 56.6374 85.5004 58.0673Z" fill="#504F70"/>
<path d="M58.4537 30.7512C55.4507 28.8147 52.1066 26.6857 48.6576 24.5313C52.108 26.6857 55.4525 28.8138 58.4559 30.7494L58.4537 30.7512Z" fill="#44435E"/>
<path d="M46.7728 35.1728C46.7652 35.1689 46.7581 35.1649 46.7506 35.1608C46.385 34.9167 46.0132 34.6703 45.636 34.4217C46.0207 34.6743 46.4001 34.9251 46.7728 35.1728ZM34.3834 27.4097C32.1392 26.0755 29.8082 24.7247 27.4168 23.3749C29.8091 24.7247 32.1392 26.0755 34.3834 27.4097ZM23.3864 20.4018C23.3847 20.1607 23.4523 19.9174 23.5955 19.7031C23.4527 19.9174 23.3851 20.1612 23.3864 20.4018ZM24.875 18.2505C24.9747 18.1514 25.0654 18.0664 25.1437 18.001C26.5913 16.8073 28.6728 15.3988 30.9908 13.9645C30.9926 13.9654 30.9939 13.9662 30.9953 13.9671C28.6768 15.3974 26.5958 16.8099 25.145 18.0024C25.0658 18.0673 24.9751 18.1518 24.875 18.2505Z" fill="#454454"/>
<path d="M48.9267 35.7301C48.2106 35.7301 47.4595 35.542 46.7728 35.1728C46.4001 34.9251 46.0207 34.6743 45.636 34.4217C45.0351 34.0263 44.4201 33.626 43.7921 33.2204L43.7569 33.1986C40.8839 31.3484 37.7297 29.3982 34.3834 27.4097C32.1391 26.0755 29.8091 24.7247 27.4168 23.3749C26.3027 22.746 25.1752 22.1176 24.0371 21.491C23.6195 21.2606 23.39 20.8354 23.3864 20.4018C23.3851 20.1611 23.4527 19.9174 23.5955 19.7031C23.6208 19.6653 23.6484 19.6288 23.6786 19.5928C24.0793 19.1142 24.5299 18.5956 24.875 18.2505C24.9751 18.1517 25.0658 18.0673 25.145 18.0023C26.5958 16.8099 28.6767 15.3974 30.9952 13.9671C36.3919 16.9941 42.6842 20.8021 48.6576 24.5313C52.1067 26.6857 55.4508 28.8147 58.4537 30.7511L51.0211 35.0443C50.6212 35.3672 50.1351 35.5753 49.609 35.6705C49.3875 35.7101 49.1589 35.7301 48.9267 35.7301Z" fill="#51506D"/>
<path d="M48.9219 35.731C48.1996 35.731 47.4417 35.5393 46.7528 35.1622C46.752 35.1617 46.7515 35.1613 46.7506 35.1609C46.7582 35.1649 46.7653 35.1689 46.7728 35.1728C47.4595 35.542 48.2107 35.7301 48.9268 35.7301C49.1589 35.7301 49.3875 35.7101 49.609 35.6705C49.3862 35.7106 49.1558 35.731 48.9219 35.731Z" fill="#454454"/>
<path d="M80.6237 50.8734C78.3247 47.7113 75.9502 44.6892 74.0752 42.4619C74.0756 42.4619 74.076 42.4614 74.0765 42.4614C74.451 42.9053 74.845 43.3812 75.2546 43.8833C76.8953 45.8994 78.7833 48.341 80.6237 50.8734ZM73.4342 41.7089C72.4718 40.5921 71.6806 39.7377 71.1563 39.2561C71.1563 39.2557 71.1562 39.2561 71.1567 39.2557C71.6806 39.7382 72.4714 40.5912 73.4338 41.7071L73.4342 41.7089Z" fill="#44435E"/>
<path d="M74.0752 42.4619C73.8541 42.1995 73.6407 41.9486 73.4343 41.7089L73.4338 41.7071C73.6407 41.9468 73.855 42.1986 74.0765 42.4614C74.0761 42.4614 74.0756 42.4619 74.0752 42.4619Z" fill="#5D5C81"/>
<path d="M87.1059 60.8216C86.6358 59.9548 86.0945 59.0293 85.5004 58.0673C86.0945 59.0293 86.6363 59.9544 87.1063 60.8216H87.1059Z" fill="#504F70"/>
<path d="M72.3651 64.6381C72.3647 64.6381 72.3638 64.6381 72.3628 64.6376L60.0188 45.9518L60.0215 45.9536L70.8512 62.3463H70.8507L72.3651 64.6381Z" fill="#454454"/>
<path d="M72.5778 64.9627L72.3629 64.6376C72.3638 64.638 72.3647 64.6381 72.3651 64.6381L72.5795 64.9622C72.5795 64.9622 72.8566 64.9352 73.2938 64.8902C72.8557 64.9356 72.5778 64.9627 72.5778 64.9627Z" fill="#454454"/>
<path d="M70.8512 62.3463L60.021 45.9536H60.0215L59.2405 44.7719C59.2405 44.7719 60.5525 44.2395 61.6817 43.7757C61.985 43.6511 62.2746 43.5315 62.5227 43.4288C62.7909 43.3171 63.0098 43.2251 63.1432 43.1668C64.8381 42.4281 66.892 41.4488 69.0619 40.3422C69.7508 39.9917 70.4522 39.628 71.1563 39.2561C71.6806 39.7378 72.4718 40.5921 73.4342 41.7089L73.5272 42.1452C73.5748 42.3685 73.7243 42.5019 73.9026 42.5019C73.9542 42.5019 74.0084 42.4908 74.0631 42.4672C74.0671 42.4655 74.0712 42.4637 74.0752 42.4619C75.9502 44.6892 78.3248 47.7113 80.6237 50.8735C81.2806 51.7772 81.9326 52.6938 82.5641 53.6051L81.3771 56.657L70.8507 62.3463" fill="#51506D"/>
<path d="M73.9027 42.5019C73.7243 42.5019 73.5749 42.3685 73.5273 42.1452L73.4343 41.7089C73.6407 41.9486 73.8542 42.1995 74.0752 42.4619C74.0712 42.4637 74.0672 42.4654 74.0632 42.4672C74.0085 42.4908 73.9543 42.5019 73.9027 42.5019Z" fill="#69698D"/>
<path d="M60.0215 45.9536L60.0189 45.9518L59.2388 44.771C59.2388 44.771 60.5517 44.2395 61.6818 43.7757C60.5526 44.2395 59.2405 44.7719 59.2405 44.7719L60.0215 45.9536ZM62.5228 43.4288C62.7914 43.3167 63.0112 43.2242 63.1446 43.1655C64.8373 42.4254 66.892 41.4465 69.062 40.3422C66.892 41.4487 64.8382 42.4281 63.1432 43.1668C63.0098 43.2251 62.791 43.3171 62.5228 43.4288Z" fill="#454454"/>
<path d="M72.5795 64.9623L72.3651 64.6381L70.8507 62.3463L81.3771 56.657L82.5641 53.6051C83.6178 55.1266 84.6171 56.6374 85.5004 58.0673C86.0945 59.0293 86.6358 59.9548 87.1059 60.8217C84.4819 62.1466 81.6702 63.3056 78.6833 64.2062C78.0859 64.385 74.7748 64.7386 73.2938 64.8903C72.8566 64.9352 72.5795 64.9623 72.5795 64.9623Z" fill="#5D5C7E"/>
<path d="M98.4583 80.0989C96.9537 79.0075 95.1933 78.3256 93.3454 78.1194C90.1267 77.7605 85.2234 77.2388 84.5456 77.3112C83.5249 77.4207 83.9625 80.7051 84.5456 82.106C85.1286 83.5067 90.3669 84.6537 92.2255 84.4712C93.7021 84.3267 97.8054 83.1335 99.6884 82.1727C100.127 81.9486 100.173 81.342 99.7738 81.0529L98.4583 80.0989Z" fill="#B9C9DB"/>
<path d="M99.8547 82.0479C100.128 81.7733 100.114 81.2989 99.7737 81.0529L98.4582 80.0989C96.9531 79.0075 95.1933 78.3256 93.3453 78.1194C90.1266 77.7605 85.2233 77.2388 84.5455 77.3112C83.9482 77.3748 83.8525 78.5263 83.9904 79.7508C85.0302 80.4031 85.5942 80.7082 86.3725 81.0284C87.7672 81.6026 88.2823 81.491 89.6299 81.2838C92.8134 80.7945 92.8716 80.5979 94.6044 80.7007C95.7292 80.7669 98.5667 81.5951 99.8547 82.0479Z" fill="#9BABC0"/>
<path d="M116.558 58.9484V59.8766C116.558 59.8766 116.733 61.5417 115.791 65.178C115.369 66.8062 115.337 68.5146 115.699 70.1565C115.791 70.5738 115.879 70.9575 115.954 71.2772C116.062 71.7421 116.6 71.9537 116.996 71.6877C118.902 70.4105 121.036 68.0133 121.322 67.1722C121.651 66.2036 121.192 65.2518 121.192 65.2518C121.192 65.2518 119.285 61.1405 116.558 58.9484Z" fill="#B9C9DB"/>
<path d="M121.368 65.7984C121.294 65.4702 121.192 65.2518 121.192 65.2518C121.192 65.2518 119.286 61.1401 116.557 58.9483C116.557 58.9483 117.178 60.8078 117.636 61.5017C118.086 62.1839 119.966 63.5449 121.368 65.7984Z" fill="#FAFDFF"/>
<path d="M116.099 71.5654C116.097 71.5642 116.096 71.5621 116.094 71.5603C116.096 71.5621 116.097 71.5636 116.099 71.5654Z" fill="#E2ECF4"/>
<path d="M116.094 71.5606C116.029 71.4824 115.98 71.3872 115.954 71.2772C115.98 71.3867 116.029 71.4824 116.094 71.5606Z" fill="#D6E1EB"/>
<path d="M116.295 62.8884C116.295 62.8879 116.295 62.8879 116.295 62.8875C116.296 62.8805 116.297 62.874 116.299 62.867H116.299C116.298 62.874 116.297 62.8814 116.295 62.8884Z" fill="#BECCDB"/>
<path d="M115.791 65.178C116.018 64.3005 116.18 63.54 116.295 62.8875C116.295 62.888 116.295 62.888 116.295 62.8884C116.18 63.54 116.018 64.3019 115.791 65.178Z" fill="#D6E1EB"/>
<path d="M116.616 71.8029C116.419 71.8029 116.228 71.7167 116.098 71.5654C116.097 71.5637 116.096 71.5623 116.094 71.5606C116.029 71.4824 115.98 71.3867 115.954 71.2772C115.879 70.9575 115.791 70.5738 115.699 70.1565C115.532 69.3995 115.449 68.6289 115.449 67.858C115.449 66.9566 115.564 66.0555 115.791 65.178C116.018 64.3019 116.18 63.54 116.295 62.8884C116.297 62.8817 116.298 62.8747 116.299 62.868C118.221 66.0493 119.278 67.3617 119.132 68.5642C119.047 69.263 118.129 70.5505 116.984 71.694C116.868 71.7684 116.741 71.8029 116.616 71.8029Z" fill="#D3DFEB"/>
<path d="M99.9223 81.2002C99.9165 81.1925 99.9108 81.1846 99.9046 81.1771C99.9041 81.1766 99.9036 81.176 99.9032 81.1757C99.9028 81.1752 99.9028 81.1743 99.9023 81.1739C99.9014 81.1729 99.9005 81.172 99.8996 81.1708C99.8996 81.1708 99.8992 81.1708 99.8992 81.1703C99.8854 81.1534 99.8707 81.1369 99.8547 81.1215C99.8796 81.1463 99.9023 81.1726 99.9223 81.2002ZM93.3453 78.1194C92.708 78.0482 92.0045 77.9707 91.2804 77.8929C92.004 77.9707 92.7076 78.0482 93.3453 78.1194Z" fill="#9EADDF"/>
<path d="M95.3387 82.9225C94.2446 82.9225 93.2444 82.7571 92.7276 82.3041C92.3847 82.0039 91.8826 81.5346 91.3262 81.004C92.5688 80.7843 93.0447 80.6739 93.8355 80.6739C94.0587 80.6739 94.3069 80.6828 94.6044 80.7007C95.7292 80.7669 98.5667 81.5951 99.8547 82.0478C99.8036 82.0972 99.7498 82.1416 99.6884 82.1724C99.0132 82.5134 97.0594 82.9225 95.3387 82.9225ZM99.9219 81.9691C100.09 81.7356 100.09 81.4087 99.9045 81.1771C99.9108 81.1846 99.9165 81.1925 99.9223 81.2002V81.2005C99.9232 81.2019 99.9246 81.2034 99.9254 81.2045C99.9259 81.2051 99.9259 81.2054 99.9263 81.2059C99.9277 81.2077 99.929 81.2094 99.9299 81.2113C99.9308 81.2126 99.9321 81.2139 99.933 81.2153C99.933 81.2157 99.9334 81.2162 99.9339 81.2165C100.082 81.4337 100.082 81.7188 99.9463 81.9361L99.9277 81.962L99.9219 81.9691ZM99.9032 81.1757C99.9027 81.1752 99.9023 81.1743 99.9023 81.1739C99.9027 81.1743 99.9027 81.1752 99.9032 81.1757Z" fill="#D3DFEB"/>
<path d="M99.8548 82.0479C98.5668 81.5951 95.7293 80.7669 94.6045 80.7007C94.307 80.6828 94.0588 80.674 93.8355 80.674C93.0448 80.674 92.5689 80.7843 91.3262 81.0041C89.9351 79.6773 88.2041 77.965 87.7673 77.5322C88.8592 77.6368 90.0965 77.7654 91.2804 77.8929C92.0045 77.9707 92.7081 78.0482 93.3454 78.1194C95.1934 78.3256 96.9532 79.0075 98.4583 80.0989L99.7738 81.0529C99.7761 81.0542 99.7783 81.056 99.7801 81.0574C99.7805 81.0578 99.781 81.0577 99.7814 81.0583C99.7832 81.0597 99.785 81.0609 99.7872 81.0623C99.7876 81.0628 99.7881 81.0631 99.7885 81.0637C99.7903 81.0649 99.7921 81.0663 99.7938 81.0677C99.7943 81.068 99.7952 81.0685 99.7956 81.0689C99.797 81.0703 99.7987 81.0717 99.8001 81.0725C99.801 81.0734 99.8014 81.0739 99.8023 81.0742C99.8037 81.0756 99.805 81.0765 99.8063 81.0779C99.8072 81.0783 99.8077 81.0788 99.8085 81.0796C99.8099 81.0805 99.8116 81.0819 99.813 81.0831C99.8139 81.084 99.8147 81.0845 99.8152 81.0854C99.817 81.0863 99.8183 81.0876 99.8197 81.089C99.8205 81.0894 99.8214 81.0903 99.8219 81.0911C99.8232 81.0922 99.8241 81.0925 99.825 81.0933C99.8263 81.0948 99.8272 81.0956 99.8285 81.097C99.8294 81.0974 99.8304 81.0982 99.8312 81.0993C99.8321 81.1001 99.8334 81.101 99.8343 81.1019C99.8352 81.1028 99.8366 81.1041 99.8379 81.105C99.8388 81.1059 99.8397 81.1068 99.8406 81.1076C99.8414 81.1085 99.8419 81.109 99.8428 81.1099C99.8441 81.1113 99.8454 81.1125 99.8472 81.1139C99.8477 81.1144 99.8481 81.1147 99.8486 81.1152C99.8504 81.117 99.8521 81.1187 99.8539 81.1204C99.8539 81.1204 99.8543 81.121 99.8548 81.1215C99.8708 81.1369 99.8855 81.1535 99.8993 81.1703C99.8993 81.1708 99.8997 81.1708 99.8997 81.1708C99.9006 81.1721 99.9015 81.1729 99.9024 81.174C99.9024 81.1743 99.9028 81.1752 99.9033 81.1757C99.9037 81.176 99.9042 81.1766 99.9046 81.1771C100.09 81.4087 100.09 81.7356 99.9219 81.9691L99.8548 82.0479Z" fill="#BECCDB"/>
<path d="M94.5497 80.5414V80.063C94.5497 79.6025 94.1903 79.2227 93.7309 79.1974L88.3169 78.8972C87.8068 78.8687 87.3772 79.2752 87.3772 79.7858V80.477C87.3772 81.3602 88.1386 82.0513 89.0179 81.9655L93.666 81.5155C94.1672 81.4666 94.5497 81.0449 94.5497 80.5414Z" fill="white"/>
<path d="M93.2418 80.368V80.0434C93.2418 79.732 92.998 79.4748 92.6872 79.4577L89.0211 79.2544C88.6751 79.2353 88.3846 79.5101 88.3846 79.8561V80.3239C88.3846 80.9222 88.9001 81.3904 89.4956 81.3327L92.6431 81.0272C92.9825 80.9941 93.2418 80.7087 93.2418 80.368Z" fill="#B9C9DB"/>
<path d="M116.256 67.9458L116.174 67.1015C116.101 66.3508 116.176 65.5929 116.396 64.8716L117.198 62.0621C117.309 61.6978 117.834 61.5373 117.943 61.9015L117.947 61.9135C118.435 63.5546 118.494 65.142 117.847 66.7279L117.288 68.0969C117.076 68.6158 116.31 68.5038 116.256 67.9458Z" fill="white"/>
<path d="M116.505 66.679L116.459 66.2085C116.418 65.79 116.46 65.3679 116.583 64.9658L117.03 63.3999C117.092 63.1966 117.384 63.1072 117.445 63.3105L117.447 63.3171C117.72 64.2315 117.752 65.1166 117.392 66.0003L117.08 66.7635C116.962 67.0526 116.535 66.9903 116.505 66.679Z" fill="#B9C9DB"/>
<path d="M91.1452 83.8255C89.9986 83.8255 85.6392 82.614 85.2527 81.9749C84.8475 81.3043 84.7399 79.9376 84.7288 79.7841L85.6009 79.7218C85.6356 80.2044 85.7682 81.089 85.9785 81.4825C86.4553 81.8197 89.9141 82.9507 91.1345 82.9507H91.1519C93.0105 82.9339 97.4389 81.4603 98.0153 81.0961L98.4827 81.8357C97.7306 82.3107 93.143 83.8072 91.1595 83.8255H91.1452Z" fill="#F57F13"/>
<path d="M117.097 71.1257L116.521 70.4674C117.849 69.3065 119.83 67.0788 120.175 66.3575C120.361 65.9439 119.723 63.6987 119.011 61.8615L119.827 61.5452C120.314 62.8026 121.4 65.8242 120.964 66.7341C120.505 67.6939 118.295 70.0783 117.097 71.1257Z" fill="#F89927"/>
</g>
<defs fill="#000000">
<linearGradient id="paint0_linear_4_342" x1="22.0112" y1="60.6838" x2="14.305" y2="47.3363" gradientUnits="userSpaceOnUse" fill="#000000">
<stop stop-color="#EFF0FA" fill="#000000"/>
<stop offset="0.273" stop-color="#EFF0FA" fill="#000000"/>
<stop offset="0.7703" stop-color="#9895A7" fill="#000000"/>
<stop offset="1" stop-color="#9895A7" fill="#000000"/>
</linearGradient>
<linearGradient id="paint1_linear_4_342" x1="18.0481" y1="56.4489" x2="21.8495" y2="49.8645" gradientUnits="userSpaceOnUse" fill="#000000">
<stop stop-color="#34323E" fill="#000000"/>
<stop offset="0.2622" stop-color="#34323E" fill="#000000"/>
<stop offset="0.7811" stop-color="#212029" fill="#000000"/>
<stop offset="1" stop-color="#212029" fill="#000000"/>
</linearGradient>
<linearGradient id="paint2_linear_4_342" x1="18.633" y1="51.5713" x2="21.6876" y2="52.4472" gradientUnits="userSpaceOnUse" fill="#000000">
<stop stop-color="#ACABB7" fill="#000000"/>
<stop offset="0.5486" stop-color="#D8D8E1" fill="#000000"/>
<stop offset="1" stop-color="#817F8F" fill="#000000"/>
</linearGradient>
<linearGradient id="paint3_linear_4_342" x1="20.0539" y1="57.3588" x2="22.5244" y2="56.3606" gradientUnits="userSpaceOnUse" fill="#000000">
<stop stop-color="#ACABB7" fill="#000000"/>
<stop offset="0.5486" stop-color="#D8D8E1" fill="#000000"/>
<stop offset="1" stop-color="#817F8F" fill="#000000"/>
</linearGradient>
<linearGradient id="paint4_linear_4_342" x1="15.8679" y1="52.3189" x2="17.2944" y2="49.8482" gradientUnits="userSpaceOnUse" fill="#000000">
<stop stop-color="#ACABB7" fill="#000000"/>
<stop offset="0.5486" stop-color="#D8D8E1" fill="#000000"/>
<stop offset="1" stop-color="#817F8F" fill="#000000"/>
</linearGradient>
<linearGradient id="paint5_linear_4_342" x1="76.2397" y1="91.9929" x2="68.5335" y2="78.6454" gradientUnits="userSpaceOnUse" fill="#000000">
<stop stop-color="#EFF0FA" fill="#000000"/>
<stop offset="0.273" stop-color="#EFF0FA" fill="#000000"/>
<stop offset="0.7703" stop-color="#9895A7" fill="#000000"/>
<stop offset="1" stop-color="#9895A7" fill="#000000"/>
</linearGradient>
<linearGradient id="paint6_linear_4_342" x1="72.2766" y1="87.7575" x2="76.0781" y2="81.1732" gradientUnits="userSpaceOnUse" fill="#000000">
<stop stop-color="#34323E" fill="#000000"/>
<stop offset="0.2622" stop-color="#34323E" fill="#000000"/>
<stop offset="0.7811" stop-color="#212029" fill="#000000"/>
<stop offset="1" stop-color="#212029" fill="#000000"/>
</linearGradient>
<linearGradient id="paint7_linear_4_342" x1="72.8619" y1="82.8804" x2="75.9165" y2="83.7563" gradientUnits="userSpaceOnUse" fill="#000000">
<stop stop-color="#ACABB7" fill="#000000"/>
<stop offset="0.5486" stop-color="#D8D8E1" fill="#000000"/>
<stop offset="1" stop-color="#817F8F" fill="#000000"/>
</linearGradient>
<linearGradient id="paint8_linear_4_342" x1="74.2824" y1="88.6675" x2="76.7529" y2="87.6694" gradientUnits="userSpaceOnUse" fill="#000000">
<stop stop-color="#ACABB7" fill="#000000"/>
<stop offset="0.5486" stop-color="#D8D8E1" fill="#000000"/>
<stop offset="1" stop-color="#817F8F" fill="#000000"/>
</linearGradient>
<linearGradient id="paint9_linear_4_342" x1="70.0969" y1="83.628" x2="71.5233" y2="81.1574" gradientUnits="userSpaceOnUse" fill="#000000">
<stop stop-color="#ACABB7" fill="#000000"/>
<stop offset="0.5486" stop-color="#D8D8E1" fill="#000000"/>
<stop offset="1" stop-color="#817F8F" fill="#000000"/>
</linearGradient>
<clipPath id="clip0_4_342" fill="#000000">
<rect width="123" height="123" fill="white"/>
</clipPath>
</defs>
</svg>